<?xml version="1.0" encoding="UTF-8"?> <svg xmlns="http://www.w3.org/2000/svg" width="16" height="16" viewBox="0 0 16 16" fill="none"><g id="Favicon"><rect width="16" height="16" fill="#878787"></rect><path id="Vector" fill-rule="evenodd" clip-rule="evenodd" d="M8 0C3.58275 0 0 3.58031 0 8.00157C0 12.4228 3.58275 16 8 16C12.4173 16 16 12.4197 16 8.00157C16 3.58345 12.4173 0 8 0ZM7.25333 4.81349C7.18431 4.81036 7.11843 4.80722 7.04627 4.80722C6.23059 4.80722 5.6502 4.90449 5.3051 5.09904C4.96 5.29359 4.78745 5.51951 4.78745 5.77996C4.78745 6.1063 4.97255 6.34477 5.33961 6.48912C5.57804 6.58953 6.21804 6.73387 7.25647 6.92528V9.72426C6.74196 9.62385 6.14275 9.51402 5.45569 9.39165C3.81804 9.09041 2.66353 8.70759 1.99215 8.24946C1.32078 7.79761 0.985098 7.14493 0.985098 6.29457C0.985098 5.29045 1.51216 4.42754 2.56 3.70582C3.60784 2.98411 5.08549 2.62326 6.9898 2.62326C7.08078 2.62326 7.16862 2.62954 7.25647 2.62954V4.81349H7.25333ZM12.8125 13.3014C11.7522 13.9729 10.1114 14.315 7.89961 14.3181V12.131C7.98745 12.131 8.07216 12.1341 8.16627 12.1341C8.91608 12.1341 9.51216 12.0526 9.95137 11.8863C10.3937 11.7199 10.6133 11.4721 10.6133 11.1363C10.6133 10.8005 10.4282 10.5715 10.058 10.4052C9.80078 10.2891 9.07922 10.1165 7.89647 9.88429V7.08217C8.4549 7.18572 9.12941 7.30182 9.92 7.43048C11.4227 7.69406 12.5522 8.09571 13.302 8.63228C14.0455 9.17513 14.4157 9.85291 14.4157 10.6688C14.4157 11.7419 13.8824 12.6205 12.8125 13.2983V13.3014Z" fill="white"></path></g></svg> 