<?xml version="1.0" encoding="UTF-8"?> <svg xmlns="http://www.w3.org/2000/svg" width="572" height="334" viewBox="0 0 572 334" fill="none"><path d="M290.483 62.2026L437.861 147.586C445.154 151.736 447.669 161.041 443.519 168.334L430.945 190.592" stroke="#133B89" stroke-width="10.6684" stroke-miterlimit="10" stroke-linecap="round" stroke-linejoin="round"></path><path d="M417.74 213.352L504.884 194.113L473.447 47.49L405.417 60.4421C399.507 61.5739 393.471 60.5679 388.189 57.4242L309.471 11.2744C301.926 6.87324 292.62 6.74751 285.076 10.8972L261.058 24.1008" stroke="#7391CB" stroke-width="10.6684" stroke-miterlimit="10" stroke-linecap="round" stroke-linejoin="round"></path><path d="M260.931 24.1009L244.207 16.3045C237.039 12.9093 228.614 13.2865 221.698 17.1847L159.578 52.2686C154.171 55.2865 147.883 56.1668 141.847 54.7835L99.8474 44.9751L67.4043 190.592L141.093 218.508" stroke="#133B89" stroke-width="10.6684" stroke-miterlimit="10" stroke-linecap="round" stroke-linejoin="round"></path><path d="M290.484 62.2026L265.712 75.2805C261.688 77.4182 258.67 81.0649 257.538 85.5919L245.466 131.239C242.574 142.304 230.628 148.466 219.814 144.442L210.005 140.795C200.574 137.275 195.418 127.089 198.059 117.406L214.658 56.7955C215.79 52.6458 218.43 49.2505 222.077 46.987L260.933 24.1008" stroke="#7391CB" stroke-width="10.6684" stroke-miterlimit="10" stroke-linecap="round" stroke-linejoin="round"></path><path d="M344.179 140.418L430.945 189.963L410.825 225.424" stroke="#133B89" stroke-width="10.6684" stroke-miterlimit="10" stroke-linecap="round" stroke-linejoin="round"></path><path d="M323.932 175.879L410.824 225.424L390.704 260.885" stroke="#133B89" stroke-width="10.6684" stroke-miterlimit="10" stroke-linecap="round" stroke-linejoin="round"></path><path d="M303.812 211.341L390.704 260.885L378.129 282.891C373.979 290.311 364.548 292.826 357.255 288.55L305.823 258.999" stroke="#133B89" stroke-width="10.6684" stroke-miterlimit="10" stroke-linecap="round" stroke-linejoin="round"></path><path d="M249.616 326.275L227.861 313.951L270.49 239.005L305.951 259.125L271.119 320.49C266.718 327.909 257.161 330.55 249.616 326.275Z" stroke="#7391CB" stroke-width="10.6684" stroke-miterlimit="10" stroke-linecap="round" stroke-linejoin="round"></path><path d="M227.86 313.825L192.399 293.706L227.609 231.711C231.633 224.544 240.687 222.029 247.855 226.179L270.363 239.005L227.86 313.825Z" stroke="#7391CB" stroke-width="10.6684" stroke-miterlimit="10" stroke-linecap="round" stroke-linejoin="round"></path><path d="M192.275 293.58L156.813 273.46L183.598 226.43C187.622 219.263 196.676 216.748 203.843 220.897L226.352 233.724L192.275 293.58Z" stroke="#7391CB" stroke-width="10.6684" stroke-miterlimit="10" stroke-linecap="round" stroke-linejoin="round"></path><path d="M156.939 273.335L135.185 261.011C127.64 256.736 124.999 247.179 129.275 239.634L140.969 219.011C144.993 211.844 154.047 209.329 161.215 213.478L183.724 226.305L156.939 273.335Z" stroke="#7391CB" stroke-width="10.6684" stroke-miterlimit="10" stroke-linecap="round" stroke-linejoin="round"></path><path d="M523.319 8.94335L467.502 20.9265L510.578 221.572L566.395 209.589L523.319 8.94335Z" stroke="#7391CB" stroke-width="10.6682" stroke-miterlimit="9.9998" stroke-linecap="round" stroke-linejoin="round"></path><path d="M48.66 6.00006L5.58398 206.645L61.4007 218.628L104.477 17.9832L48.66 6.00006Z" stroke="#133B89" stroke-width="10.6682" stroke-miterlimit="9.9998" stroke-linecap="round" stroke-linejoin="round"></path></svg> 