<svg width="608" height="164" viewBox="0 0 608 164" fill="none" xmlns="http://www.w3.org/2000/svg">
<path opacity="0.1" fill-rule="evenodd" clip-rule="evenodd" d="M36.1846 25.0022C12.1096 41.6703 0 61.5996 0 84.7901C0 104.43 7.71258 119.503 23.1379 129.939C38.5632 140.52 65.089 149.361 102.715 156.318C118.501 159.145 132.34 161.681 144.089 164V99.3566C120.303 94.9359 105.598 91.6023 100.048 89.2832C91.6147 85.9496 87.3619 80.4419 87.3619 72.905C87.3619 66.89 91.3264 61.6721 99.2553 57.179C107.184 52.6858 120.591 50.4392 139.26 50.4392C140.918 50.4392 142.432 50.4392 144.017 50.5842V0.144937C141.999 0.144937 139.981 0 137.891 0C94.1376 0 60.2595 8.33407 36.1124 25.0022" fill="#7391CB"/>
<path opacity="0.1" fill-rule="evenodd" clip-rule="evenodd" d="M582.471 35.1327C565.501 22.9714 539.939 13.9393 505.927 7.89419C488.034 4.97832 472.839 2.34692 460.129 0V63.5091C486.898 68.7008 503.229 72.6834 509.051 75.3148C517.43 79.0841 521.619 84.6314 521.619 91.8855C521.619 99.1396 516.649 105.114 506.637 108.883C496.626 112.652 483.135 114.501 466.235 114.501C464.176 114.501 462.188 114.501 460.2 114.43V164C510.33 163.858 547.394 156.177 571.394 140.957C595.607 125.596 607.677 105.683 607.677 81.3599C607.677 62.869 599.299 47.5074 582.471 35.2038" fill="#7391CB"/>
</svg>
