<svg width="1440" height="607" viewBox="0 0 1440 607" fill="none" xmlns="http://www.w3.org/2000/svg">
<mask id="mask0_1706_2162" style="mask-type:alpha" maskUnits="userSpaceOnUse" x="0" y="0" width="1440" height="607">
<rect width="1440" height="607" fill="#133B89"/>
</mask>
<g mask="url(#mask0_1706_2162)">
<path opacity="0.1" fill-rule="evenodd" clip-rule="evenodd" d="M-74.0049 132.312C-146.524 182.519 -183 242.55 -183 312.404C-183 371.562 -159.768 416.967 -113.304 448.402C-66.8402 480.273 13.0607 506.905 126.398 527.861C173.948 536.374 215.635 544.015 251.026 551V356.281C179.375 342.966 135.083 332.924 118.365 325.939C92.9615 315.897 80.1511 299.307 80.1511 276.604C80.1511 258.486 92.093 242.768 115.976 229.234C139.86 215.7 180.244 208.933 236.478 208.933C241.472 208.933 246.032 208.933 250.809 209.369V57.4366C244.729 57.4366 238.65 57 232.353 57C100.561 57 -1.48659 82.1038 -74.2223 132.312" fill="#7391CB"/>
<path opacity="0.1" fill-rule="evenodd" clip-rule="evenodd" d="M1571.52 162.827C1520.4 126.194 1443.4 98.9879 1340.95 80.7788C1287.06 71.9957 1241.28 64.0694 1203 57V248.302C1283.63 263.94 1332.83 275.937 1350.36 283.863C1375.6 295.217 1388.22 311.926 1388.22 333.777C1388.22 355.628 1373.25 373.623 1343.09 384.977C1312.94 396.33 1272.3 401.9 1221.39 401.9C1215.19 401.9 1209.2 401.9 1203.21 401.686V551C1354.21 550.572 1465.86 527.435 1538.15 481.591C1611.09 435.319 1647.45 375.336 1647.45 302.072C1647.45 246.374 1622.21 200.101 1571.52 163.041" fill="#7391CB"/>
</g>
</svg>
