<?xml version="1.0" encoding="UTF-8"?> <svg xmlns="http://www.w3.org/2000/svg" width="245" height="51" viewBox="0 0 245 51" fill="none"><g clip-path="url(#clip0_1406_3163)"><path fill-rule="evenodd" clip-rule="evenodd" d="M219.093 0C205.01 0 193.588 11.4122 193.588 25.505C193.588 39.5978 205.01 51 219.093 51C233.176 51 244.598 39.5878 244.598 25.505C244.598 11.4222 233.176 0 219.093 0ZM216.712 15.343C216.492 15.333 216.282 15.323 216.052 15.323C213.452 15.323 211.601 15.6331 210.501 16.2532C209.401 16.8733 208.851 17.5935 208.851 18.4236C208.851 19.4638 209.441 20.224 210.611 20.6841C211.371 21.0041 213.412 21.4642 216.722 22.0743V30.9961C215.082 30.676 213.172 30.3259 210.981 29.9359C205.76 28.9757 202.08 27.7554 199.939 26.2952C197.799 24.8549 196.729 22.7745 196.729 20.0639C196.729 16.8633 198.409 14.1128 201.749 11.8123C205.09 9.51186 209.801 8.36164 215.872 8.36164C216.162 8.36164 216.442 8.38164 216.722 8.38164V15.343H216.712ZM234.436 42.3983C231.055 44.5387 225.824 45.6289 218.773 45.639V38.6676C219.053 38.6676 219.323 38.6776 219.623 38.6776C222.013 38.6776 223.914 38.4175 225.314 37.8874C226.724 37.3573 227.425 36.5672 227.425 35.497C227.425 34.4268 226.834 33.6966 225.654 33.1665C224.834 32.7964 222.534 32.2463 218.763 31.5062V22.5744C220.543 22.9045 222.694 23.2746 225.214 23.6846C230.005 24.5248 233.606 25.8051 235.996 27.5154C238.367 29.2457 239.547 31.4062 239.547 34.0067C239.547 37.4273 237.847 40.2279 234.436 42.3883V42.3983Z" fill="white"></path><path fill-rule="evenodd" clip-rule="evenodd" d="M6.66131 41.5582C6.80133 42.7284 7.11139 43.5586 7.58149 44.0587C8.41165 44.9388 9.95195 45.3789 12.2024 45.3789C13.5227 45.3789 14.5729 45.1889 15.343 44.7988C16.1232 44.4087 16.5132 43.8286 16.5132 43.0585C16.5132 42.2883 16.1932 41.7582 15.543 41.3681C14.9029 40.9781 12.5825 40.3179 8.58168 39.3777C5.70112 38.6676 3.68072 37.7774 2.51049 36.7172C1.35026 35.667 0.760149 34.1567 0.760149 32.1763C0.760149 29.8459 1.67033 27.8455 3.51069 26.1652C5.35105 24.4848 7.93156 23.6547 11.2622 23.6547C14.4228 23.6547 16.9933 24.2848 18.9837 25.535C20.9741 26.7953 22.1143 28.9657 22.4144 32.0463H15.8231C15.7331 31.2061 15.493 30.536 15.103 30.0459C14.3728 29.1557 13.1226 28.7157 11.3722 28.7157C9.92195 28.7157 8.89174 28.9457 8.28162 29.3858C7.6715 29.8259 7.36144 30.356 7.36144 30.9561C7.36144 31.7062 7.69151 32.2564 8.34164 32.5864C9.00177 32.9465 11.3122 33.5466 15.273 34.4168C17.9135 35.0369 19.8839 35.9671 21.1842 37.2173C22.4644 38.4876 23.1045 40.0579 23.1045 41.9583C23.1045 44.4587 22.1743 46.4991 20.304 48.0695C18.4436 49.6498 15.553 50.4399 11.6523 50.4399C7.75152 50.4399 4.74093 49.5998 2.84056 47.9394C0.940184 46.2691 0 44.1487 0 41.5582H6.66131Z" fill="white"></path><path fill-rule="evenodd" clip-rule="evenodd" d="M41.9085 39.7478C41.8585 41.9882 41.2384 43.5385 40.0481 44.3787C38.8479 45.2288 37.5476 45.6489 36.1274 45.6489C35.2372 45.6489 34.477 45.3989 33.8569 44.8888C33.2268 44.3787 32.9167 43.5485 32.9167 42.4083C32.9167 41.128 33.4368 40.1778 34.477 39.5677C35.0872 39.2077 36.0873 38.9076 37.4576 38.6475L38.9279 38.3675C39.668 38.2275 40.2382 38.0774 40.6682 37.9074C41.0883 37.7474 41.4984 37.5273 41.9185 37.2673V39.7578L41.9085 39.7478ZM35.6673 34.4367C33.1268 34.7668 31.1964 35.3069 29.8961 36.077C27.5057 37.4773 26.3154 39.7378 26.3154 42.8684C26.3154 45.2788 27.0656 47.1492 28.5459 48.4595C30.0362 49.7797 31.9165 50.4399 34.197 50.4399C35.9873 50.4399 37.5876 50.0298 38.9979 49.2096C40.1782 48.5095 41.2284 47.6693 42.1385 46.6791C42.1885 47.2492 42.2486 47.7493 42.3186 48.1894C42.3986 48.6295 42.5286 49.0996 42.7286 49.5997H49.9001V48.6295C49.46 48.4395 49.1299 48.1794 48.9099 47.8794C48.6898 47.5793 48.5598 46.9992 48.5098 46.139C48.4698 44.9888 48.4598 44.0086 48.4598 43.1984V31.5261C48.4598 28.4555 47.3896 26.3851 45.2491 25.3249C43.1187 24.2647 40.6682 23.7346 37.9177 23.7346C33.6869 23.7346 30.7063 24.8348 28.976 27.0253C27.8857 28.4355 27.2656 30.2259 27.1256 32.4063H33.5168C33.6669 31.4361 33.9769 30.666 34.427 30.0959C35.0671 29.3257 36.1574 28.9356 37.7077 28.9356C39.0879 28.9356 40.1281 29.1357 40.8383 29.5358C41.5484 29.9358 41.9085 30.656 41.9085 31.6962C41.9085 32.5563 41.4384 33.1865 40.4982 33.5866C39.9681 33.8266 39.0979 34.0166 37.8877 34.1667L35.6473 34.4467L35.6673 34.4367Z" fill="white"></path><path fill-rule="evenodd" clip-rule="evenodd" d="M85.9965 24.4448C87.0867 24.8849 88.0769 25.645 88.9671 26.7352C89.6872 27.6154 90.1673 28.6956 90.4174 29.9759C90.5674 30.826 90.6574 32.0663 90.6574 33.7066L90.6074 49.6097H83.8561V33.5366C83.8561 32.5764 83.696 31.7962 83.376 31.1761C82.7759 30.0059 81.6756 29.4158 80.0653 29.4158C78.205 29.4158 76.9147 30.1659 76.2046 31.6862C75.8445 32.4864 75.6645 33.4566 75.6645 34.5768V49.5997H69.0732V34.5768C69.0732 33.0765 68.9131 31.9863 68.6031 31.3061C68.043 30.0859 66.9528 29.4758 65.3124 29.4758C63.4121 29.4758 62.1318 30.0859 61.4817 31.3061C61.1216 32.0063 60.9416 33.0365 60.9416 34.4067V49.5997H54.2803V24.4148H60.6615V28.0955C61.4817 26.7752 62.2518 25.8451 62.982 25.275C64.2622 24.2848 65.9226 23.7847 67.963 23.7847C69.8933 23.7847 71.4536 24.2147 72.6439 25.0649C73.6041 25.8551 74.3242 26.8653 74.8243 28.1055C75.7045 26.6252 76.7847 25.525 78.0749 24.8249C79.4452 24.1247 80.9755 23.7747 82.6658 23.7747C83.7861 23.7747 84.8963 23.9947 85.9865 24.4248" fill="white"></path><path fill-rule="evenodd" clip-rule="evenodd" d="M128.175 24.4448C129.265 24.8849 130.255 25.645 131.146 26.7352C131.866 27.6154 132.346 28.6956 132.596 29.9759C132.756 30.826 132.836 32.0663 132.836 33.7066L132.786 49.6097H126.035V33.5366C126.035 32.5764 125.875 31.7962 125.564 31.1761C124.964 30.0059 123.864 29.4158 122.254 29.4158C120.393 29.4158 119.103 30.1659 118.393 31.6862C118.033 32.4864 117.843 33.4566 117.843 34.5768V49.5997H111.252V34.5768C111.252 33.0765 111.092 31.9863 110.792 31.3061C110.231 30.0859 109.131 29.4758 107.501 29.4758C105.601 29.4758 104.33 30.0859 103.67 31.3061C103.31 32.0063 103.13 33.0365 103.13 34.4067V49.5997H96.4688V24.4148H102.85V28.0955C103.67 26.7752 104.44 25.8451 105.17 25.275C106.451 24.2848 108.111 23.7847 110.151 23.7847C112.082 23.7847 113.642 24.2147 114.832 25.0649C115.793 25.8551 116.513 26.8653 117.003 28.1055C117.873 26.6252 118.963 25.525 120.253 24.8249C121.624 24.1247 123.154 23.7747 124.844 23.7747C125.965 23.7747 127.075 23.9947 128.165 24.4248" fill="white"></path><path fill-rule="evenodd" clip-rule="evenodd" d="M149.1 29.1357C150.67 29.1357 151.98 29.5858 153.04 30.476C154.101 31.3662 154.691 32.6864 154.811 34.4068H143.359C143.599 32.7865 144.189 31.4962 145.129 30.556C146.069 29.6058 147.389 29.1357 149.1 29.1357ZM149.15 23.6547C145.459 23.6547 142.468 24.8249 140.158 27.1553C137.847 29.4858 136.697 32.8365 136.697 37.2173C136.697 41.8882 137.978 45.2589 140.528 47.3293C143.089 49.3997 146.029 50.4399 149.37 50.4399C153.421 50.4399 156.571 49.2097 158.822 46.7492C160.272 45.2089 161.082 43.6786 161.252 42.1783H154.571C154.171 42.9284 153.731 43.5086 153.21 43.9286C152.27 44.7088 151.05 45.0889 149.55 45.0889C148.14 45.0889 146.919 44.7788 145.919 44.1387C144.259 43.1185 143.389 41.3281 143.289 38.7776H161.632C161.662 36.5972 161.592 34.9269 161.412 33.7766C161.112 31.7963 160.442 30.0659 159.412 28.5656C158.272 26.8653 156.821 25.625 155.071 24.8349C153.321 24.0447 151.35 23.6547 149.16 23.6547" fill="white"></path><path fill-rule="evenodd" clip-rule="evenodd" d="M179.035 23.7346C179.115 23.7446 179.305 23.7646 179.596 23.7846V30.4459C179.185 30.4159 178.805 30.4059 178.485 30.3959C178.165 30.3859 177.895 30.3759 177.695 30.3759C175.045 30.3759 173.274 31.2461 172.374 32.9764C171.864 33.9566 171.604 35.4569 171.604 37.4873V49.5997H165.013V24.2647H171.264V28.6756C172.284 27.0052 173.164 25.865 173.914 25.2449C175.145 24.2247 176.745 23.7046 178.715 23.7046C178.835 23.7046 178.945 23.7146 179.025 23.7246" fill="white"></path></g><defs><clipPath id="clip0_1406_3163"><rect width="244.598" height="51" fill="white"></rect></clipPath></defs></svg> 