<svg width="345" height="288" viewBox="0 0 345 288" fill="none" xmlns="http://www.w3.org/2000/svg">
<path d="M1.16918 143.497H2.62266C3.23811 145.611 4.03236 147.746 5.00175 149.902C5.97114 152.058 7.27258 154.04 8.90364 155.845C10.5347 157.65 12.5392 159.125 14.9182 160.269C17.2973 161.414 20.1617 161.986 23.5126 161.986C26.3332 161.986 28.8437 161.127 31.0476 159.408C33.2503 157.691 34.3523 154.891 34.3523 151.01C34.3523 147.661 33.4911 145.304 31.7737 143.938C30.0563 142.572 28.0506 141.492 25.7603 140.698L15.4498 137.127C14.1264 136.687 12.6961 136.137 11.1526 135.475C9.60909 134.814 8.17872 133.888 6.85782 132.698C5.53449 131.509 4.45563 129.986 3.62003 128.135C2.782 126.284 2.36359 123.905 2.36359 120.995C2.36359 118.536 2.85011 116.254 3.82558 114.144C4.80106 112.036 6.12926 110.191 7.80897 108.61C9.48868 107.028 11.4956 105.799 13.8321 104.921C16.1686 104.042 18.7034 103.602 21.4364 103.602C23.3752 103.602 24.9393 103.752 26.1289 104.048C27.3184 104.345 28.3547 104.643 29.2365 104.94C30.1183 105.238 30.9114 105.537 31.6156 105.833C32.3198 106.128 33.1591 106.278 34.1285 106.278C35.0979 106.278 35.8033 105.954 36.2436 105.305H37.6995V120.387H36.2436C35.6258 118.445 34.9203 116.569 34.1285 114.759C33.3342 112.949 32.388 111.34 31.2848 109.928C30.1816 108.516 28.8181 107.412 27.1871 106.617C25.556 105.823 23.6391 105.425 21.4364 105.425C17.2037 105.425 13.9197 106.374 11.5844 108.267C9.24907 110.159 8.08142 112.691 8.08142 115.861C8.08142 118.679 9.07149 120.815 11.0516 122.267C13.0318 123.72 15.9582 125.062 19.8321 126.295L29.4688 129.464C33.6067 130.874 36.9953 132.811 39.6359 135.278C42.2753 137.745 43.5962 141.002 43.5962 145.052C43.5962 147.43 43.1328 149.763 42.2084 152.052C41.2852 154.342 39.9205 156.346 38.1143 158.063C36.3081 159.781 34.1078 161.167 31.5086 162.223C28.9093 163.279 25.9343 163.808 22.5858 163.808C20.6458 163.808 18.8615 163.612 17.2304 163.223C15.5994 162.83 14.1009 162.415 12.7362 161.98C11.3703 161.543 10.1139 161.125 8.9681 160.727C7.82235 160.331 6.76538 160.132 5.79599 160.132C4.8266 160.132 4.11993 160.331 3.67841 160.727C3.23811 161.125 2.88538 161.542 2.62145 161.983H1.16797V143.495L1.16918 143.497Z" fill="white"/>
<path d="M69.3879 129.266C69.3879 130.145 69.3672 131.047 69.327 131.97C69.2857 132.893 69.2662 134.061 69.2662 135.467C69.2662 138.371 69.4414 141.403 69.7941 144.569C70.1468 147.735 70.9192 150.594 72.1087 153.144C73.2983 155.695 75.0607 157.806 77.396 159.476C79.7313 161.149 82.8389 161.983 86.7177 161.983C90.5965 161.983 93.7917 161.412 96.3034 160.266C98.815 159.12 100.798 157.731 102.252 156.1C103.707 154.469 104.786 152.818 105.493 151.144C106.198 149.469 106.726 148.103 107.08 147.045L109.062 147.442C108.798 148.412 108.291 149.801 107.542 151.606C106.793 153.413 105.603 155.221 103.973 157.026C102.342 158.833 100.138 160.417 97.3615 161.773C94.5847 163.128 90.993 163.808 86.5876 163.808C82.1821 163.808 78.1014 163.102 74.3564 161.696C70.609 160.288 67.3664 158.264 64.626 155.622C61.8857 152.98 59.7645 149.834 58.2636 146.181C56.7602 142.529 56.0098 138.458 56.0098 133.968C56.0098 130.095 56.7809 126.332 58.3244 122.68C59.8679 119.027 61.9867 115.793 64.6771 112.976C67.3676 110.159 70.5214 107.892 74.1399 106.176C77.756 104.46 81.6372 103.601 85.7836 103.601C88.2539 103.601 90.8993 104.041 93.7236 104.924C96.5478 105.807 99.1726 107.241 101.599 109.225C104.024 111.209 106.053 113.834 107.687 117.097C109.318 120.36 110.134 124.415 110.134 129.266H69.3879ZM96.633 127.32C96.7947 126.089 96.8762 124.946 96.8762 123.891V120.594C96.8762 117.604 96.5892 115.144 96.0175 113.208C95.4434 111.273 94.6516 109.736 93.6384 108.593C92.6241 107.448 91.3907 106.635 89.936 106.153C88.4801 105.67 86.916 105.426 85.2423 105.426C82.2454 105.426 79.7763 106.021 77.8387 107.207C75.8999 108.395 74.3577 109.999 73.2107 112.021C72.0637 114.044 71.2062 116.373 70.6333 119.011C70.0592 121.65 69.6846 124.42 69.5107 127.32H96.6342H96.633Z" fill="white"/>
<path d="M175.166 147.442C174.902 148.412 174.395 149.801 173.646 151.606C172.896 153.413 171.707 155.221 170.077 157.026C168.446 158.833 166.242 160.417 163.465 161.773C160.688 163.128 157.097 163.808 152.691 163.808C149.34 163.808 145.859 163.28 142.246 162.224C138.631 161.167 135.323 159.474 132.319 157.14C129.315 154.808 126.863 151.751 124.963 147.964C123.063 144.178 122.112 139.513 122.112 133.967C122.112 129.655 122.93 125.65 124.564 121.952C126.199 118.256 128.409 115.044 131.193 112.316C133.977 109.587 137.242 107.453 140.991 105.911C144.737 104.371 148.725 103.6 152.956 103.6C155.336 103.6 157.782 103.887 160.294 104.458C162.807 105.032 165.096 105.912 167.169 107.101C169.24 108.291 170.959 109.832 172.325 111.726C173.691 113.621 174.376 115.933 174.376 118.665C174.376 120.516 173.781 122.034 172.591 123.223C171.402 124.413 169.705 125.006 167.5 125.006C166.002 125.006 164.57 124.676 163.203 124.014C161.835 123.352 161.154 122.227 161.154 120.639C161.154 119.405 161.462 117.906 162.08 116.142C162.695 114.378 163.006 112.923 163.006 111.774C163.006 109.747 161.991 108.18 159.965 107.078C157.937 105.976 155.601 105.423 152.958 105.423C151.018 105.423 149.012 105.666 146.941 106.15C144.869 106.634 142.974 107.846 141.257 109.784C139.539 111.723 138.129 114.629 137.027 118.505C135.925 122.382 135.374 127.668 135.374 134.363C135.374 138.153 135.614 141.72 136.101 145.067C136.585 148.415 137.467 151.344 138.744 153.855C140.021 156.365 141.785 158.348 144.032 159.801C146.279 161.255 149.209 161.981 152.824 161.981C156.701 161.981 159.898 161.409 162.41 160.263C164.921 159.118 166.904 157.729 168.358 156.098C169.813 154.466 170.892 152.816 171.599 151.141C172.304 149.466 172.832 148.1 173.186 147.042L175.169 147.44L175.166 147.442Z" fill="white"/>
<path d="M183.307 160.133H193.487V107.129H183.307V105.305H204.556V118.562L204.799 118.651C205.15 117.33 205.722 115.833 206.516 114.157C207.309 112.482 208.409 110.875 209.82 109.332C211.228 107.788 212.924 106.488 214.905 105.432C216.887 104.377 219.287 103.845 222.108 103.845C224.134 103.845 225.896 104.176 227.393 104.838C228.89 105.499 230.123 106.335 231.093 107.348C232.062 108.363 232.765 109.53 233.207 110.852C233.648 112.174 233.868 113.495 233.868 114.819C233.868 117.728 233.207 119.667 231.886 120.636C230.563 121.606 229.022 122.09 227.26 122.09C223.383 122.09 221.445 120.833 221.445 118.319C221.445 117.525 221.533 116.886 221.709 116.4C221.886 115.913 222.085 115.429 222.306 114.943C222.526 114.459 222.725 113.906 222.901 113.287C223.076 112.669 223.165 111.786 223.165 110.638C223.165 107.814 221.624 106.401 218.541 106.401C217.131 106.401 215.631 106.931 214.046 107.989C212.462 109.047 210.985 110.591 209.62 112.621C208.256 114.651 207.11 117.1 206.187 119.966C205.261 122.834 204.799 126.119 204.799 129.825V160.132H216.3V161.984H183.306V160.133H183.307Z" fill="white"/>
<path d="M252.891 129.266C252.891 130.146 252.87 131.047 252.83 131.97C252.789 132.893 252.769 134.061 252.769 135.467C252.769 138.371 252.944 141.404 253.297 144.57C253.65 147.736 254.422 150.594 255.612 153.145C256.801 155.695 258.564 157.807 260.899 159.477C263.234 161.149 266.342 161.983 270.221 161.983C274.099 161.983 277.295 161.412 279.806 160.266C282.318 159.12 284.301 157.731 285.755 156.1C287.21 154.469 288.289 152.819 288.995 151.144C289.701 149.469 290.229 148.103 290.583 147.045L292.565 147.443C292.301 148.412 291.794 149.801 291.045 151.606C290.296 153.413 289.106 155.221 287.476 157.026C285.845 158.833 283.641 160.417 280.864 161.773C278.088 163.128 274.496 163.808 270.09 163.808C265.685 163.808 261.604 163.102 257.859 161.696C254.112 160.288 250.869 158.264 248.129 155.622C245.389 152.98 243.267 149.834 241.767 146.181C240.263 142.529 239.513 138.458 239.513 133.968C239.513 130.096 240.284 126.333 241.827 122.68C243.371 119.027 245.49 115.793 248.18 112.976C250.871 110.159 254.024 107.892 257.643 106.176C261.259 104.46 265.14 103.601 269.287 103.601C271.757 103.601 274.402 104.041 277.227 104.924C280.051 105.807 282.676 107.241 285.102 109.225C287.527 111.209 289.556 113.834 291.19 117.097C292.821 120.36 293.637 124.416 293.637 129.266H252.891ZM280.136 127.32C280.298 126.089 280.379 124.946 280.379 123.891V120.594C280.379 117.604 280.092 115.144 279.52 113.209C278.946 111.273 278.155 109.736 277.141 108.593C276.127 107.448 274.894 106.636 273.439 106.153C271.983 105.67 270.419 105.427 268.745 105.427C265.748 105.427 263.279 106.022 261.34 107.207C259.402 108.396 257.859 109.999 256.712 112.022C255.565 114.044 254.708 116.373 254.135 119.012C253.561 121.65 253.186 124.42 253.012 127.32H280.136Z" fill="white"/>
<path d="M301.884 105.305H312.063V88.2388C312.765 88.5052 313.422 88.7254 314.036 88.9005C314.65 89.0769 315.702 89.1645 317.192 89.1645C318.507 89.1645 319.645 89.01 320.611 88.7023C321.577 88.3945 322.496 87.8873 323.375 87.1819V105.305H342.149V107.129H323.375V150.352C323.375 152.821 323.615 154.825 324.101 156.366C324.585 157.91 325.223 159.099 326.019 159.935C326.813 160.773 327.672 161.324 328.597 161.588C329.523 161.852 330.425 161.983 331.307 161.983C334.392 161.983 336.882 160.86 338.778 158.612C340.673 156.365 341.885 153.786 342.413 150.877L344.265 151.539C343.998 152.687 343.602 153.964 343.073 155.374C342.544 156.783 341.729 158.13 340.627 159.407C339.525 160.684 338.093 161.737 336.332 162.566C334.568 163.394 332.366 163.809 329.722 163.809C323.122 163.809 318.529 162.532 315.942 159.977C313.355 157.423 312.063 153.812 312.063 149.143V107.129H301.884V105.305Z" fill="white"/>
<path d="M2.2627 225.484V197.302H5.84348V225.484H2.2627Z" fill="white"/>
<path d="M25.2262 201.857V225.484H21.8789V197.302H26.5884L40.0954 220.695V197.302H43.4038V225.484H39.0835L25.2262 201.857Z" fill="white"/>
<path d="M56.0923 197.302H60.1012L68.0801 222.019H68.1191L75.8255 197.302H79.4842L70.4531 225.484H65.5879L56.0898 197.302H56.0923Z" fill="white"/>
<path d="M109.145 222.37V225.484H92.1738V197.302H108.639V200.416H95.7546V209.719H107.86V212.833H95.7546V222.37H109.145Z" fill="white"/>
<path d="M125.142 204.231C125.142 207.656 128.333 208.63 131.875 209.68C136.001 210.887 140.477 212.21 140.477 217.659C140.477 223.614 135.729 225.95 130.512 225.95C124.635 225.95 120.975 223.614 120.235 217.815L123.66 217.309C124.322 220.306 125.723 222.914 130.55 222.914C133.585 222.914 136.816 221.902 136.816 218.165C136.816 214.662 133.663 213.728 130.199 212.755C125.996 211.588 121.481 210.381 121.481 204.58C121.481 199.754 125.529 196.796 130.979 196.796C135.922 196.796 139.658 198.703 140.243 204.736L136.896 205.125C136.468 202.44 135.378 199.832 131.019 199.832C126.66 199.832 125.142 201.739 125.142 204.23V204.231Z" fill="white"/>
<path d="M159.665 200.417H151.142V197.303H171.693V200.417H163.247V225.484H159.667V200.417H159.665Z" fill="white"/>
<path d="M208.554 225.484V201.157H208.515L199.991 225.484H196.254L187.886 201.118H187.808V225.484H184.5V197.302H189.949L198.241 221.279H198.279L206.571 197.302H211.942V225.484H208.556H208.554Z" fill="white"/>
<path d="M244.947 222.37V225.484H227.976V197.302H244.441V200.416H231.556V209.719H243.662V212.833H231.556V222.37H244.947Z" fill="white"/>
<path d="M262.266 201.857V225.484H258.919V197.302H263.628L277.135 220.695V197.302H280.444V225.484H276.124L262.266 201.857Z" fill="white"/>
<path d="M301.773 200.417H293.249V197.303H313.801V200.417H305.355V225.484H301.774V200.417H301.773Z" fill="white"/>
<path d="M328.629 204.231C328.629 207.656 331.821 208.63 335.363 209.68C339.488 210.887 343.964 212.21 343.964 217.659C343.964 223.614 339.216 225.95 333.999 225.95C328.122 225.95 324.462 223.614 323.723 217.815L327.148 217.309C327.809 220.306 329.211 222.914 334.037 222.914C337.073 222.914 340.303 221.902 340.303 218.165C340.303 214.662 337.151 213.728 333.687 212.755C329.483 211.588 324.968 210.381 324.968 204.58C324.968 199.754 329.016 196.796 334.466 196.796C339.409 196.796 343.146 198.703 343.731 204.736L340.384 205.125C339.955 202.44 338.866 199.832 334.506 199.832C330.147 199.832 328.629 201.739 328.629 204.23V204.231Z" fill="white"/>
<path d="M138.033 260.244C137.85 260.322 137.603 260.571 137.29 260.987C136.507 262.032 135.698 263.01 134.864 263.923C134.028 264.837 133.272 265.581 132.593 266.154C132.279 266.416 131.848 266.768 131.301 267.211C130.753 267.655 130.205 268.086 129.657 268.503C129.108 268.921 128.416 269.442 127.582 270.068C127.529 270.068 127.725 269.625 128.169 268.738C128.612 267.851 129.148 266.807 129.775 265.606C132.071 261.065 133.219 258.612 133.219 258.247C133.219 258.09 133.115 257.922 132.907 257.739C132.697 257.556 132.515 257.465 132.359 257.465C132.253 257.465 132.111 257.622 131.929 257.934C131.745 258.247 131.289 258.979 130.559 260.126C129.567 261.692 128.589 263.179 127.623 264.589C126.656 265.998 125.73 267.25 124.844 268.347C123.956 269.443 123.147 270.356 122.417 271.087C121.687 271.818 121.087 272.315 120.617 272.575C120.2 272.784 119.952 272.823 119.874 272.693C119.796 272.563 119.784 272.211 119.835 271.636C119.94 270.489 120.397 268.963 121.205 267.057C122.015 265.152 123.148 262.974 124.61 260.52C125.027 259.843 125.38 259.267 125.667 258.798C125.953 258.328 126.098 258.068 126.098 258.015C126.098 257.858 125.992 257.702 125.784 257.545C125.575 257.388 125.366 257.337 125.158 257.388C125.053 257.388 124.909 257.48 124.727 257.662C124.545 257.844 124.244 258.276 123.827 258.954C123.153 259.964 122.535 260.965 121.973 261.957C121.889 262.011 121.803 262.067 121.714 262.123C120.931 262.62 120.305 262.972 119.835 263.18C119.678 263.233 119.456 263.312 119.17 263.415C118.883 263.521 118.594 263.611 118.309 263.689C118.022 263.767 117.747 263.846 117.486 263.923C117.225 264.001 117.068 264.041 117.017 264.041C116.911 264.041 117.017 263.756 117.33 263.18C118.059 261.093 118.268 259.528 117.956 258.483C117.85 258.223 117.682 257.961 117.447 257.7C117.213 257.439 116.965 257.257 116.703 257.151C116.077 256.839 115.372 256.891 114.589 257.308C113.91 257.622 113.232 258.079 112.554 258.678C111.876 259.278 111.092 260.101 110.206 261.143L109.736 261.612C109.841 261.3 110.167 260.687 110.715 259.772C111.264 258.86 111.889 257.829 112.594 256.68C113.299 255.533 114.016 254.371 114.747 253.197C115.477 252.023 116.103 251.044 116.626 250.261C117.201 249.426 117.683 248.709 118.075 248.108C118.467 247.508 118.663 247.182 118.663 247.13C118.663 247.027 118.531 246.883 118.271 246.699C118.009 246.517 117.827 246.426 117.722 246.426C117.513 246.426 117.108 246.792 116.508 247.522C115.908 248.253 115.203 249.232 114.395 250.458C113.585 251.685 112.672 253.107 111.654 254.725C110.636 256.343 109.632 258.066 108.64 259.891C108.065 260.936 107.44 262.122 106.761 263.454C106.084 264.785 105.457 266.064 104.882 267.29C104.308 268.517 103.799 269.613 103.355 270.578C102.913 271.545 102.665 272.183 102.612 272.496C102.561 272.705 102.665 272.888 102.925 273.044C103.5 273.254 103.891 273.176 104.099 272.81C104.204 272.706 104.321 272.524 104.451 272.262C104.583 272.002 104.725 271.714 104.882 271.401C105.194 270.567 105.351 270.254 105.351 270.462C105.404 270.881 105.468 271.193 105.547 271.401C105.625 271.611 105.743 271.82 105.9 272.028C106.006 272.132 106.148 272.237 106.33 272.34C106.514 272.446 106.658 272.549 106.761 272.653C107.023 272.759 107.414 272.823 107.935 272.849C108.455 272.875 108.926 272.837 109.344 272.731C110.336 272.418 111.445 271.609 112.671 270.304C113.897 269 115.032 267.435 116.077 265.607L116.703 264.589L117.956 264.276C118.268 264.173 118.66 264.041 119.13 263.885C119.599 263.728 119.964 263.571 120.226 263.415C120.639 263.233 121.092 262.977 121.585 262.652C121.002 263.728 120.482 264.791 120.028 265.842C119.064 268.086 118.58 269.887 118.58 271.243C118.58 271.662 118.607 271.961 118.658 272.143C118.71 272.327 118.789 272.496 118.892 272.652C119.571 273.695 120.589 273.617 121.945 272.417C122.258 272.104 122.675 271.674 123.198 271.125C123.719 270.577 124.255 269.965 124.804 269.286C125.351 268.609 125.886 267.93 126.408 267.25C126.929 266.573 127.372 265.946 127.739 265.371C127.999 264.954 128.234 264.588 128.443 264.275C128.651 263.962 128.782 263.78 128.834 263.726C128.886 263.623 128.729 263.961 128.365 264.744C127.999 265.528 127.529 266.519 126.955 267.72L124.92 272.025L123.276 273.199C122.806 273.564 122.192 274.021 121.437 274.569C120.682 275.116 120.015 275.599 119.441 276.017C118.033 277.061 116.871 277.947 115.958 278.678C115.045 279.408 114.223 280.166 113.491 280.949C112.604 281.836 111.925 282.645 111.456 283.376C110.986 284.106 110.752 284.732 110.752 285.255C110.752 285.672 110.935 286.089 111.3 286.508C111.666 286.925 112.136 287.212 112.71 287.369C113.389 287.577 114.25 287.459 115.293 287.016C116.338 286.572 117.382 285.855 118.425 284.863C119.418 283.924 120.644 282.292 122.105 279.97C123.565 277.647 125.027 275.025 126.488 272.102L126.958 271.084L129.229 269.439C130.324 268.605 131.276 267.848 132.086 267.169C132.894 266.491 133.624 265.826 134.277 265.173C134.929 264.521 135.542 263.842 136.118 263.138C136.692 262.433 137.291 261.638 137.918 260.75C138.178 260.333 138.217 260.163 138.035 260.242L138.033 260.244ZM113.687 266.076C113.19 266.86 112.655 267.668 112.082 268.503C111.561 269.234 110.973 269.926 110.321 270.578C109.668 271.231 109.133 271.662 108.716 271.87C107.463 272.445 106.628 272.314 106.21 271.478C106.053 271.218 105.989 270.8 106.014 270.225C106.041 269.651 106.185 269.156 106.445 268.738C106.706 268.111 107.201 267.512 107.932 266.937C108.662 266.363 109.523 265.919 110.516 265.607C110.673 265.556 110.933 265.49 111.299 265.411C111.664 265.333 112.043 265.254 112.434 265.176C112.826 265.098 113.204 265.033 113.569 264.98C113.934 264.929 114.168 264.903 114.273 264.903C114.378 264.903 114.182 265.294 113.685 266.076H113.687ZM116.388 260.322C116.075 261.392 115.684 262.397 115.214 263.336C114.953 263.911 114.718 264.249 114.51 264.354C114.301 264.46 113.622 264.589 112.474 264.746C112.056 264.798 111.652 264.852 111.26 264.903C110.869 264.955 110.568 265.034 110.36 265.137C109.942 265.243 109.447 265.411 108.873 265.646C108.297 265.881 107.855 266.129 107.542 266.389L107.307 266.624C107.256 266.676 107.203 266.701 107.15 266.701C107.046 266.701 107.189 266.376 107.581 265.722C107.973 265.07 108.376 264.457 108.795 263.883C110.255 261.847 111.456 260.374 112.396 259.46C113.335 258.547 114.249 257.96 115.137 257.698C115.344 257.647 115.489 257.608 115.567 257.58C115.645 257.555 115.736 257.542 115.841 257.542C115.945 257.542 116.101 257.594 116.31 257.698C116.571 257.803 116.702 257.933 116.702 258.09C116.806 258.508 116.702 259.252 116.389 260.321L116.388 260.322ZM124.059 273.67C123.85 274.087 123.59 274.582 123.276 275.157C121.606 278.445 120.118 280.976 118.813 282.751C117.51 284.524 116.23 285.726 114.977 286.352C114.665 286.509 114.403 286.626 114.194 286.705C113.986 286.783 113.724 286.823 113.411 286.823C112.941 286.874 112.588 286.848 112.354 286.745C112.119 286.639 111.898 286.404 111.688 286.041C111.323 285.519 111.376 284.813 111.845 283.927C112.211 283.248 112.916 282.374 113.959 281.304C115.004 280.234 116.282 279.099 117.795 277.899C118.161 277.586 118.695 277.168 119.401 276.646C120.105 276.124 120.797 275.615 121.476 275.12C122.153 274.623 122.768 274.181 123.316 273.789C123.865 273.397 124.189 273.176 124.295 273.124C124.346 273.072 124.268 273.255 124.061 273.671L124.059 273.67Z" fill="white"/>
<path d="M229.431 260.204C229.378 260.153 229.274 260.204 229.117 260.361C228.804 260.831 228.346 261.47 227.747 262.279C227.146 263.089 226.52 263.924 225.868 264.785C225.215 265.646 224.563 266.482 223.911 267.29C223.258 268.1 222.697 268.739 222.228 269.209C221.444 270.096 220.595 270.866 219.683 271.518C218.77 272.171 218.051 272.496 217.53 272.496C217.01 272.496 216.618 272.261 216.357 271.792C216.149 271.375 216.044 270.787 216.044 270.031C216.044 269.274 216.175 268.504 216.436 267.721C216.854 266.208 217.165 265.478 217.375 265.529C217.426 265.582 217.557 265.595 217.766 265.568C217.974 265.543 218.209 265.529 218.471 265.529C219.41 265.426 220.336 265.034 221.25 264.355C222.162 263.678 222.933 262.817 223.56 261.772C223.977 261.146 224.225 260.69 224.303 260.403C224.381 260.117 224.446 259.712 224.499 259.189C224.55 258.197 224.264 257.623 223.637 257.466C223.325 257.363 223.141 257.309 223.09 257.309C222.933 257.309 222.594 257.387 222.072 257.544C220.976 257.963 219.88 258.746 218.784 259.893C218.672 260.011 218.562 260.133 218.452 260.254C218.277 260.401 218.023 260.671 217.688 261.068C217.479 261.382 217.219 261.747 216.905 262.164C216.593 262.582 216.304 262.947 216.044 263.26C215.783 263.572 215.469 263.964 215.105 264.433C214.739 264.903 214.426 265.321 214.166 265.686C213.748 266.261 213.278 266.848 212.756 267.447C212.235 268.048 211.738 268.621 211.269 269.17C210.799 269.718 210.369 270.201 209.977 270.618C209.585 271.037 209.285 271.322 209.077 271.479C208.346 272.055 207.694 272.458 207.12 272.693C206.545 272.928 206.232 272.916 206.181 272.654C206.075 272.237 206.363 271.298 207.042 269.836C207.72 268.375 208.738 266.469 210.095 264.121C210.929 262.765 211.569 261.564 212.013 260.519C212.456 259.476 212.679 258.746 212.679 258.328C212.679 257.909 212.522 257.532 212.209 257.193C211.895 256.853 211.53 256.684 211.113 256.684C210.434 256.684 209.521 257.142 208.373 258.054C207.225 258.967 206.129 260.102 205.085 261.459C204.73 261.934 204.494 262.228 204.377 262.343C204.378 262.335 204.381 262.329 204.381 262.321C204.381 262.216 204.406 262.113 204.459 262.007C204.719 261.433 204.928 260.899 205.085 260.403C205.242 259.907 205.371 259.502 205.477 259.189C205.581 258.562 205.528 258.015 205.32 257.544C205.111 257.075 204.771 256.789 204.302 256.683C203.727 256.578 202.775 257.075 201.445 258.171C200.114 259.267 198.77 260.676 197.413 262.398C196.682 263.337 196.329 263.729 196.356 263.572C196.381 263.415 196.916 262.529 197.96 260.911C198.273 260.441 198.56 259.972 198.821 259.502C199.082 259.033 199.264 258.719 199.369 258.563C199.525 258.25 199.615 258.055 199.642 257.976C199.668 257.898 199.629 257.807 199.525 257.702C199.316 257.545 199.107 257.417 198.899 257.311C198.69 257.207 198.455 257.285 198.195 257.545C197.933 257.859 197.491 258.512 196.864 259.502C196.494 260.088 196.106 260.719 195.701 261.394C195.538 261.627 195.352 261.883 195.142 262.164C194.829 262.582 194.541 262.947 194.281 263.26C194.019 263.572 193.705 263.964 193.342 264.433C192.976 264.903 192.663 265.321 192.403 265.686C191.984 266.261 191.515 266.848 190.993 267.447C190.471 268.048 189.975 268.621 189.506 269.17C189.036 269.718 188.606 270.201 188.214 270.618C187.822 271.037 187.522 271.322 187.314 271.479C186.583 272.055 185.931 272.458 185.357 272.693C184.781 272.928 184.469 272.916 184.418 272.654C184.312 272.237 184.6 271.298 185.279 269.836C185.956 268.375 186.974 266.469 188.332 264.121C189.166 262.765 189.806 261.564 190.25 260.519C190.693 259.476 190.915 258.746 190.915 258.328C190.915 257.909 190.758 257.532 190.446 257.193C190.132 256.853 189.767 256.684 189.35 256.684C188.671 256.684 187.758 257.142 186.61 258.054C185.461 258.967 184.365 260.102 183.322 261.459C182.967 261.934 182.731 262.228 182.614 262.343C182.615 262.335 182.618 262.329 182.618 262.321C182.618 262.216 182.643 262.113 182.695 262.007C182.956 261.433 183.165 260.899 183.322 260.403C183.479 259.907 183.608 259.502 183.714 259.189C183.818 258.562 183.765 258.015 183.557 257.544C183.347 257.075 183.008 256.789 182.539 256.683C181.963 256.578 181.012 257.075 179.682 258.171C178.351 259.267 177.007 260.676 175.649 262.398C174.918 263.337 174.566 263.729 174.593 263.572C174.618 263.415 175.153 262.529 176.197 260.911C176.509 260.441 176.796 259.972 177.058 259.502C177.318 259.033 177.501 258.719 177.605 258.563C177.762 258.25 177.852 258.055 177.879 257.976C177.904 257.898 177.866 257.807 177.762 257.702C177.553 257.545 177.344 257.417 177.136 257.311C176.927 257.207 176.692 257.285 176.432 257.545C176.17 257.859 175.727 258.512 175.101 259.502C174.475 260.495 173.796 261.616 173.065 262.869C172.885 263.177 172.707 263.486 172.531 263.794C171.366 265.551 170.355 266.979 169.504 268.075C168.224 269.719 167.064 270.959 166.02 271.793C165.602 272.055 165.198 272.289 164.806 272.497C164.415 272.707 164.166 272.784 164.062 272.732C163.957 272.629 163.905 272.379 163.905 271.989C163.905 271.599 164.008 271.116 164.217 270.54C164.269 270.228 164.335 269.953 164.413 269.718C164.491 269.483 164.596 269.223 164.726 268.935C164.856 268.649 165.025 268.296 165.234 267.878C165.442 267.461 165.729 266.887 166.095 266.156C166.825 264.746 167.269 263.846 167.426 263.454C167.583 263.063 167.609 262.789 167.504 262.632C167.398 262.475 167.242 262.346 167.034 262.24C166.825 262.136 166.643 262.083 166.486 262.083C166.277 262.083 166.081 262.188 165.898 262.396C165.715 262.605 165.362 263.1 164.841 263.884C164.266 264.771 163.589 265.776 162.807 266.898C162.023 268.02 161.37 268.894 160.85 269.52C160.328 270.146 159.715 270.799 159.009 271.477C158.305 272.156 157.849 272.522 157.64 272.573C157.327 272.679 157.145 272.651 157.091 272.495C157.04 272.338 157.013 271.974 157.013 271.399C157.066 270.46 157.341 269.391 157.836 268.189C158.332 266.989 158.958 265.79 159.715 264.588C160.47 263.387 161.331 262.266 162.298 261.221C163.263 260.178 164.242 259.316 165.234 258.638C166.121 258.064 166.879 257.764 167.505 257.738C168.132 257.712 168.549 257.986 168.758 258.56C168.809 258.821 168.836 259.213 168.836 259.734C168.836 260.254 168.783 260.726 168.679 261.142C168.627 261.456 168.613 261.65 168.64 261.73C168.665 261.807 168.73 261.846 168.836 261.846C169.044 261.795 169.188 261.351 169.266 260.516C169.344 259.681 169.331 259.003 169.227 258.481C169.071 257.907 168.613 257.463 167.858 257.15C167.1 256.838 166.305 256.785 165.47 256.993C164.635 257.202 163.787 257.607 162.926 258.207C162.065 258.808 161.216 259.526 160.381 260.36C159.546 261.196 158.79 262.121 158.11 263.139C157.603 263.902 157.168 264.671 156.807 265.448C156.74 265.535 156.679 265.614 156.624 265.684C156.52 265.788 156.35 265.971 156.116 266.231C155.881 266.493 155.633 266.78 155.373 267.092C155.111 267.405 154.797 267.771 154.434 268.188C154.067 268.606 153.755 268.946 153.495 269.206L152.556 270.224L152.79 269.598C153.103 268.814 153.299 267.941 153.378 266.975C153.456 266.011 153.442 264.692 153.339 263.022L153.261 261.065L153.653 260.831C153.913 260.674 154.187 260.427 154.475 260.088C154.761 259.748 155.01 259.371 155.219 258.953C155.427 258.588 155.532 258.34 155.532 258.21C155.532 258.079 155.454 257.91 155.297 257.701C155.036 257.387 154.722 257.258 154.358 257.309C153.94 257.309 153.536 257.48 153.144 257.818C152.753 258.158 152.427 258.615 152.165 259.187C152.113 259.344 152.074 259.501 152.048 259.657C152.022 259.814 151.996 260.036 151.971 260.322C151.944 260.609 151.919 261.001 151.893 261.496C151.867 261.992 151.854 262.658 151.854 263.492C151.854 264.326 151.842 264.993 151.815 265.488C151.789 265.984 151.764 266.388 151.737 266.702C151.711 267.014 151.673 267.277 151.62 267.485C151.569 267.694 151.516 267.955 151.463 268.268C151.255 268.999 151.06 269.56 150.876 269.952C150.693 270.343 150.472 270.748 150.211 271.166C149.636 271.897 148.958 272.367 148.176 272.574C147.862 272.626 147.524 272.601 147.158 272.496C146.844 272.393 146.622 272.261 146.492 272.105C146.362 271.948 146.271 271.662 146.219 271.243C146.011 270.514 146.219 269.783 146.845 269.052L147.471 268.425C147.471 268.321 147.211 268.374 146.688 268.582C146.271 268.844 145.972 269.247 145.788 269.796C145.606 270.343 145.592 270.905 145.749 271.479C145.958 272.315 146.532 272.862 147.471 273.124C147.577 273.176 147.72 273.202 147.902 273.202H148.489C149.428 273.151 150.421 272.707 151.465 271.871C152.039 271.454 152.874 270.632 153.97 269.406C154.769 268.512 155.539 267.61 156.284 266.702C155.978 267.462 155.78 268.052 155.692 268.465C155.589 268.962 155.536 269.6 155.536 270.383C155.536 270.959 155.549 271.349 155.574 271.557C155.601 271.766 155.666 272.001 155.77 272.261C156.136 272.837 156.58 273.149 157.101 273.2C157.57 273.357 158.093 273.227 158.666 272.809C158.823 272.705 159.071 272.469 159.411 272.105C159.75 271.74 160.115 271.321 160.507 270.852C160.898 270.382 161.29 269.887 161.68 269.364C162.072 268.844 162.397 268.373 162.659 267.955C162.763 267.747 162.867 267.576 162.972 267.446C163.075 267.316 163.129 267.277 163.129 267.328C163.077 267.434 163.051 267.537 163.051 267.642C162.999 267.747 162.973 267.851 162.973 267.955C162.973 268.058 162.946 268.164 162.895 268.267C162.686 268.842 162.543 269.455 162.465 270.107C162.387 270.761 162.374 271.269 162.426 271.634C162.583 272.836 163.209 273.382 164.305 273.278C164.722 273.227 165.153 273.096 165.597 272.887C166.039 272.679 166.548 272.287 167.123 271.712C168.031 270.852 169.016 269.717 170.078 268.31C169.809 268.846 169.58 269.328 169.393 269.755C168.715 271.164 168.363 272.039 168.336 272.377C168.31 272.718 168.506 272.885 168.923 272.885H169.393L170.332 271.085C170.698 270.408 170.997 269.833 171.232 269.363C171.467 268.894 171.715 268.463 171.975 268.071C172.237 267.68 172.524 267.262 172.836 266.819C173.149 266.376 173.54 265.841 174.01 265.214C174.53 264.484 174.976 263.884 175.341 263.414C175.705 262.945 176.031 262.541 176.32 262.2C176.605 261.861 176.894 261.535 177.181 261.222C177.467 260.908 177.819 260.545 178.238 260.126C180.011 258.247 181.395 257.308 182.387 257.308C182.543 257.308 182.633 257.335 182.66 257.386C182.686 257.438 182.672 257.621 182.621 257.935C182.569 258.353 182.269 259.149 181.721 260.322C181.173 261.496 180.455 262.816 179.568 264.275C179.411 264.537 179.163 264.954 178.824 265.528C178.483 266.103 178.12 266.716 177.728 267.368C177.336 268.021 176.97 268.634 176.632 269.207C176.292 269.783 176.07 270.174 175.967 270.382C175.705 270.801 175.575 271.113 175.575 271.321C175.575 271.478 175.665 271.608 175.849 271.713C176.031 271.819 176.227 271.87 176.436 271.87C176.697 271.87 176.906 271.753 177.063 271.517C177.22 271.282 177.662 270.566 178.393 269.364C178.811 268.634 179.345 267.799 179.999 266.859C180.651 265.92 181.316 264.993 181.995 264.079C182.672 263.167 183.312 262.318 183.913 261.535C184.513 260.752 185.021 260.153 185.439 259.735C187.056 258.118 188.335 257.308 189.276 257.308C189.745 257.308 189.85 257.595 189.589 258.169C189.484 258.431 189.171 259.018 188.651 259.931C188.129 260.844 187.555 261.823 186.928 262.867C186.614 263.336 186.275 263.898 185.91 264.55C185.544 265.203 185.206 265.855 184.892 266.507C184.578 267.16 184.291 267.773 184.031 268.347C183.77 268.923 183.587 269.365 183.482 269.678C183.116 270.723 182.961 271.506 183.013 272.027C183.064 272.549 183.352 272.94 183.874 273.2C184.031 273.357 184.344 273.435 184.813 273.435C185.23 273.383 185.609 273.266 185.948 273.082C186.287 272.9 186.743 272.574 187.317 272.105C187.787 271.74 188.243 271.309 188.687 270.813C189.13 270.318 189.874 269.443 190.918 268.19C191.492 267.461 191.987 266.848 192.405 266.351C192.822 265.856 193.189 265.412 193.501 265.021C193.63 264.859 193.75 264.703 193.867 264.551C193.477 265.243 193.094 265.934 192.719 266.626C192.042 267.879 191.519 268.924 191.154 269.758C190.476 271.168 190.123 272.043 190.097 272.381C190.071 272.721 190.267 272.889 190.684 272.889H191.154L192.093 271.089C192.459 270.411 192.758 269.836 192.993 269.367C193.227 268.897 193.476 268.467 193.736 268.075C193.997 267.683 194.284 267.266 194.597 266.822C194.91 266.379 195.301 265.844 195.771 265.218C196.291 264.488 196.736 263.887 197.101 263.418C197.466 262.948 197.792 262.544 198.08 262.204C198.366 261.865 198.655 261.539 198.942 261.226C199.227 260.912 199.58 260.548 199.999 260.13C201.772 258.251 203.156 257.312 204.147 257.312C204.304 257.312 204.394 257.339 204.421 257.39C204.447 257.442 204.433 257.624 204.382 257.938C204.33 258.357 204.029 259.152 203.482 260.326C202.934 261.5 202.216 262.819 201.329 264.279C201.172 264.54 200.924 264.958 200.585 265.532C200.244 266.107 199.881 266.72 199.489 267.372C199.097 268.025 198.731 268.638 198.393 269.211C198.053 269.786 197.831 270.178 197.728 270.386C197.466 270.804 197.336 271.117 197.336 271.325C197.336 271.482 197.426 271.612 197.61 271.717C197.792 271.822 197.988 271.873 198.197 271.873C198.458 271.873 198.667 271.757 198.824 271.521C198.981 271.286 199.423 270.57 200.154 269.368C200.571 268.638 201.105 267.803 201.76 266.862C202.412 265.923 203.077 264.996 203.756 264.083C204.433 263.171 205.073 262.322 205.674 261.539C206.273 260.755 206.782 260.157 207.2 259.738C208.817 258.122 210.096 257.312 211.037 257.312C211.506 257.312 211.611 257.599 211.35 258.173C211.245 258.435 210.932 259.022 210.411 259.934C209.89 260.848 209.315 261.827 208.689 262.87C208.375 263.34 208.036 263.902 207.671 264.554C207.305 265.207 206.967 265.859 206.653 266.511C206.339 267.164 206.052 267.777 205.792 268.351C205.53 268.926 205.348 269.369 205.243 269.682C204.877 270.726 204.721 271.51 204.774 272.03C204.825 272.552 205.113 272.944 205.635 273.204C205.792 273.361 206.104 273.439 206.574 273.439C206.991 273.387 207.369 273.27 207.709 273.086C208.048 272.904 208.504 272.578 209.078 272.108C209.548 271.743 210.004 271.313 210.448 270.816C210.891 270.321 211.635 269.447 212.679 268.194C213.253 267.464 213.748 266.851 214.166 266.355C214.583 265.86 214.949 265.416 215.262 265.024C215.391 264.864 215.51 264.709 215.626 264.557C215.269 265.324 214.991 266.08 214.792 266.825C214.48 268 214.35 269.083 214.401 270.073C214.453 271.066 214.741 271.796 215.262 272.265C215.784 272.735 216.254 273.022 216.67 273.126C217.089 273.231 217.596 273.192 218.197 273.008C218.797 272.826 219.357 272.527 219.88 272.108C220.767 271.431 221.955 270.203 223.443 268.429C224.93 266.656 226.587 264.489 228.414 261.931C229.144 260.784 229.483 260.209 229.432 260.209L229.431 260.204ZM153.259 260.126C153.363 259.709 153.532 259.265 153.767 258.796C154.002 258.326 154.249 258.04 154.51 257.935C154.77 257.831 154.902 257.884 154.902 258.092C154.953 258.301 154.902 258.574 154.745 258.914C154.588 259.254 154.379 259.554 154.119 259.814C154.014 259.92 153.909 260.023 153.806 260.126C153.703 260.23 153.597 260.31 153.493 260.361L153.259 260.596V260.126ZM219.097 262.083C219.514 261.406 220.141 260.648 220.976 259.813C221.811 258.978 222.464 258.431 222.933 258.168C223.09 258.117 223.219 258.065 223.325 258.011C223.428 257.96 223.507 257.933 223.56 257.933C223.768 257.933 223.924 258.168 224.029 258.638C224.08 259.056 223.977 259.577 223.715 260.203C223.454 260.829 223.089 261.444 222.619 262.043C222.15 262.644 221.613 263.205 221.015 263.727C220.414 264.248 219.827 264.615 219.254 264.823C218.835 264.979 218.432 265.084 218.04 265.135C217.648 265.187 217.452 265.162 217.452 265.057C217.452 264.953 217.622 264.576 217.961 263.922C218.3 263.271 218.677 262.658 219.096 262.083H219.097Z" fill="white"/>
<path d="M237.964 260.204C237.858 260.204 237.716 260.336 237.533 260.596C237.349 260.857 236.971 261.535 236.398 262.631C235.041 264.979 233.645 267.081 232.211 268.932C230.774 270.786 229.561 271.999 228.57 272.573C228.204 272.834 227.918 272.964 227.709 272.964C227.604 272.964 227.54 272.939 227.513 272.887C227.488 272.836 227.474 272.626 227.474 272.26C227.58 271.634 227.788 270.917 228.101 270.107C228.413 269.298 228.856 268.451 229.431 267.563C229.796 266.936 230.227 266.153 230.723 265.214C231.218 264.275 231.545 263.623 231.701 263.257C231.909 262.788 231.975 262.435 231.897 262.2C231.819 261.965 231.517 261.562 230.997 260.986C230.37 260.466 230.058 260.1 230.058 259.89C230.058 259.787 230.136 259.617 230.292 259.382C230.449 259.147 230.632 258.874 230.84 258.56C231.048 258.246 231.231 257.96 231.388 257.699C231.545 257.438 231.623 257.281 231.623 257.229C231.623 257.072 231.492 256.917 231.231 256.76C230.97 256.655 230.801 256.642 230.723 256.721C230.645 256.799 230.5 256.969 230.292 257.229C229.979 257.595 229.705 257.972 229.47 258.364C229.235 258.756 229.118 259.056 229.118 259.264C229.118 259.734 229.431 260.203 230.056 260.674C230.161 260.78 230.278 260.908 230.409 261.065C230.539 261.222 230.656 261.352 230.762 261.457C230.865 261.666 230.905 261.81 230.88 261.888C230.853 261.965 230.762 262.161 230.606 262.475C230.5 262.632 230.319 262.932 230.058 263.375C229.796 263.819 229.51 264.275 229.197 264.745C228.518 265.789 227.957 266.781 227.513 267.72C227.07 268.659 226.743 269.52 226.534 270.303C226.326 271.086 226.248 271.752 226.299 272.299C226.352 272.848 226.561 273.226 226.926 273.434C227.344 273.748 227.891 273.72 228.57 273.356C228.83 273.199 229.222 272.861 229.744 272.338C230.266 271.815 230.813 271.217 231.388 270.538C231.962 269.86 232.51 269.195 233.033 268.542C233.553 267.89 233.945 267.328 234.207 266.859C234.363 266.598 234.506 266.389 234.637 266.232C234.767 266.075 234.858 265.946 234.911 265.841C234.962 265.789 235.145 265.476 235.458 264.902C235.772 264.327 236.123 263.701 236.515 263.022C236.907 262.345 237.258 261.731 237.572 261.182C237.885 260.634 238.042 260.334 238.042 260.282C238.042 260.23 238.015 260.204 237.964 260.204Z" fill="white"/>
<path d="M342.239 181.775H0V183.599H342.239V181.775Z" fill="white"/>
<path fill-rule="evenodd" clip-rule="evenodd" d="M173.391 0C154.202 0 138.64 15.5565 138.64 34.7485C138.64 53.9405 154.202 69.4933 173.391 69.4933C192.579 69.4933 208.139 53.9368 208.139 34.7485C208.139 15.5601 192.584 0 173.391 0ZM170.153 20.9021C169.86 20.8863 169.569 20.8741 169.259 20.8741C165.718 20.8741 163.194 21.295 161.686 22.1379C160.186 22.9783 159.435 23.9635 159.435 25.0923C159.435 26.5129 160.233 27.5407 161.83 28.1732C162.87 28.611 165.651 29.2435 170.152 30.0742V42.2336C167.921 41.7982 165.318 41.3201 162.325 40.7862C155.212 39.4714 150.204 37.8148 147.285 35.8188C144.367 33.8606 142.908 31.0278 142.908 27.3327C142.908 22.971 145.193 19.2224 149.749 16.0892C154.306 12.9597 160.723 11.3858 168.991 11.3858C169.39 11.3858 169.762 11.4138 170.152 11.4138V20.9009L170.153 20.9021ZM194.302 57.7657C189.691 60.6897 182.569 62.1639 172.953 62.1833V52.6816C173.331 52.6853 173.709 52.6962 174.108 52.6962C177.361 52.6962 179.949 52.3398 181.866 51.6161C183.786 50.8937 184.746 49.8111 184.746 48.3637C184.746 46.9163 183.942 45.9153 182.34 45.1892C181.221 44.6905 178.09 43.9352 172.953 42.9317V30.7663C175.38 31.2139 178.304 31.7187 181.738 32.2806C188.271 33.4288 193.174 35.1705 196.431 37.4961C199.659 39.8545 201.266 42.804 201.266 46.3447C201.266 51.0092 198.944 54.8162 194.301 57.7657H194.302Z" fill="white"/>
</svg>
