<?xml version="1.0" encoding="UTF-8"?>
<svg xmlns="http://www.w3.org/2000/svg" xmlns:xlink="http://www.w3.org/1999/xlink" width="15pt" height="15pt" viewBox="0 0 15 15" version="1.1">
<g id="surface1">
<path style=" stroke:none;fill-rule:nonzero;fill:rgb(87.058824%,92.54902%,94.509804%);fill-opacity:1;" d="M 7.5 0 C 3.378906 0 0 3.378906 0 7.5 C 0 11.621094 3.378906 15 7.5 15 C 11.621094 15 15 11.621094 15 7.5 C 15 3.378906 11.621094 0 7.5 0 Z M 7.5 0 "/>
<path style=" stroke:none;fill-rule:nonzero;fill:rgb(77.254902%,82.745098%,86.666667%);fill-opacity:1;" d="M 15 7.5 C 15 11.621094 11.621094 15 7.5 15 L 7.5 0 C 11.621094 0 15 3.378906 15 7.5 Z M 15 7.5 "/>
<path style=" stroke:none;fill-rule:nonzero;fill:rgb(32.54902%,47.45098%,51.372549%);fill-opacity:1;" d="M 7.5 5.742188 C 6.535156 5.742188 5.742188 6.53125 5.742188 7.5 C 5.742188 8.464844 6.535156 9.257812 7.5 9.257812 C 8.464844 9.257812 9.257812 8.464844 9.257812 7.5 C 9.257812 6.53125 8.464844 5.742188 7.5 5.742188 Z M 7.5 5.742188 "/>
<path style=" stroke:none;fill-rule:nonzero;fill:rgb(32.54902%,47.45098%,51.372549%);fill-opacity:1;" d="M 9.625 4.175781 L 7.867188 1.539062 C 7.78125 1.417969 7.640625 1.355469 7.5 1.355469 C 7.359375 1.355469 7.21875 1.417969 7.132812 1.539062 L 5.375 4.175781 C 5.285156 4.316406 5.277344 4.484375 5.355469 4.632812 C 5.433594 4.773438 5.585938 4.863281 5.742188 4.863281 L 9.257812 4.863281 C 9.414062 4.863281 9.566406 4.773438 9.644531 4.632812 C 9.722656 4.484375 9.714844 4.320312 9.625 4.175781 Z M 9.625 4.175781 "/>
<path style=" stroke:none;fill-rule:nonzero;fill:rgb(32.54902%,47.45098%,51.372549%);fill-opacity:1;" d="M 9.644531 10.367188 C 9.566406 10.222656 9.414062 10.136719 9.257812 10.136719 L 5.742188 10.136719 C 5.585938 10.136719 5.433594 10.222656 5.355469 10.367188 C 5.277344 10.515625 5.285156 10.679688 5.375 10.820312 L 7.132812 13.457031 C 7.21875 13.582031 7.351562 13.652344 7.5 13.652344 C 7.648438 13.652344 7.78125 13.582031 7.867188 13.457031 L 9.625 10.820312 C 9.714844 10.679688 9.722656 10.515625 9.644531 10.367188 Z M 9.644531 10.367188 "/>
<path style=" stroke:none;fill-rule:nonzero;fill:rgb(24.313725%,34.901961%,34.901961%);fill-opacity:1;" d="M 7.5 9.257812 L 7.5 5.742188 C 8.464844 5.742188 9.257812 6.53125 9.257812 7.5 C 9.257812 8.464844 8.464844 9.257812 7.5 9.257812 Z M 7.5 9.257812 "/>
<path style=" stroke:none;fill-rule:nonzero;fill:rgb(24.313725%,34.901961%,34.901961%);fill-opacity:1;" d="M 9.644531 10.367188 C 9.722656 10.515625 9.714844 10.679688 9.625 10.820312 L 7.867188 13.457031 C 7.78125 13.582031 7.648438 13.652344 7.5 13.652344 L 7.5 10.136719 L 9.257812 10.136719 C 9.414062 10.136719 9.566406 10.222656 9.644531 10.367188 Z M 9.644531 10.367188 "/>
<path style=" stroke:none;fill-rule:nonzero;fill:rgb(24.313725%,34.901961%,34.901961%);fill-opacity:1;" d="M 9.257812 4.863281 L 7.5 4.863281 L 7.5 1.355469 C 7.640625 1.355469 7.78125 1.417969 7.867188 1.539062 L 9.625 4.175781 C 9.714844 4.316406 9.722656 4.484375 9.644531 4.632812 C 9.566406 4.773438 9.414062 4.863281 9.257812 4.863281 Z M 9.257812 4.863281 "/>
</g>
</svg>
