<?xml version="1.0" encoding="iso-8859-1"?>
<!-- Generator: Adobe Illustrator 21.0.0, SVG Export Plug-In . SVG Version: 6.00 Build 0)  -->
<svg xmlns="http://www.w3.org/2000/svg" xmlns:xlink="http://www.w3.org/1999/xlink" version="1.1" id="Capa_1" x="0px" y="0px" viewBox="0 0 512 512" style="enable-background:new 0 0 512 512;" xml:space="preserve" width="512" height="512">
<g>
	<g>
		<path style="fill:#DEECF1;" d="M256,0C115.3,0,0,115.3,0,256s115.3,256,256,256s256-115.3,256-256S396.7,0,256,0z"/>
	</g>
	<path style="fill:#C5D3DD;" d="M512,256c0,140.7-115.3,256-256,256V0C396.7,0,512,115.3,512,256z"/>
	<g>
		<path style="fill:#537983;" d="M256,196c-32.999,0-60,26.999-60,60c0,32.999,27.001,60,60,60s60-27.001,60-60    C316,222.999,288.999,196,256,196z"/>
	</g>
	<g>
		<path style="fill:#537983;" d="M328.599,142.599l-60-90c-2.999-4.2-7.8-6.299-12.599-6.299s-9.6,2.098-12.599,6.299l-60,90    c-3.001,4.801-3.301,10.501-0.601,15.601c2.701,4.799,7.8,7.8,13.2,7.8h120c5.4,0,10.499-3.001,13.2-7.8    C331.901,153.1,331.601,147.4,328.599,142.599z"/>
	</g>
	<g>
		<path style="fill:#537983;" d="M329.2,353.8c-2.701-4.801-7.8-7.8-13.2-7.8H196c-5.4,0-10.499,2.999-13.2,7.8    c-2.701,5.099-2.401,10.8,0.601,15.599l60,90c2.999,4.2,7.5,6.601,12.599,6.601s9.6-2.401,12.599-6.601l60-90    C331.601,364.6,331.901,358.9,329.2,353.8z"/>
	</g>
	<path style="fill:#3E5959;" d="M256,316V196c32.999,0,60,26.999,60,60C316,288.999,288.999,316,256,316z"/>
	<path style="fill:#3E5959;" d="M329.2,353.8c2.701,5.099,2.401,10.8-0.601,15.599l-60,90c-2.999,4.2-7.5,6.601-12.599,6.601V346h60   C321.4,346,326.499,348.999,329.2,353.8z"/>
	<path style="fill:#3E5959;" d="M316,166h-60V46.3c4.799,0,9.6,2.098,12.599,6.299l60,90c3.001,4.801,3.301,10.501,0.601,15.601   C326.499,162.999,321.4,166,316,166z"/>
</g>















</svg>
