<svg width="71" height="70" viewBox="0 0 71 70" fill="none" xmlns="http://www.w3.org/2000/svg">
<path fill-rule="evenodd" clip-rule="evenodd" d="M35.3906 0C16.2022 0 0.639648 15.5565 0.639648 34.7485C0.639648 53.9405 16.2022 69.4933 35.3906 69.4933C54.5789 69.4933 70.139 53.9368 70.139 34.7485C70.139 15.5601 54.5838 0 35.3906 0ZM32.1528 20.9021C31.8596 20.8863 31.5689 20.8741 31.2588 20.8741C27.7181 20.8741 25.1943 21.295 23.6861 22.1379C22.1864 22.9783 21.4347 23.9635 21.4347 25.0923C21.4347 26.5129 22.2326 27.5407 23.8296 28.1732C24.8696 28.611 27.6513 29.2435 32.1516 30.0742V42.2336C29.9209 41.7982 27.318 41.3201 24.3247 40.7862C17.2117 39.4714 12.2042 37.8148 9.28512 35.8188C6.36722 33.8606 4.90764 31.0278 4.90764 27.3327C4.90764 22.971 7.19307 19.2224 11.7493 16.0892C16.3056 12.9597 22.7228 11.3858 30.9912 11.3858C31.3902 11.3858 31.7623 11.4138 32.1516 11.4138V20.9009L32.1528 20.9021ZM56.3024 57.7657C51.6914 60.6897 44.5688 62.1639 34.9527 62.1833V52.6816C35.331 52.6853 35.7092 52.6962 36.1082 52.6962C39.3606 52.6962 41.9489 52.3398 43.8657 51.6161C45.7863 50.8937 46.7459 49.8111 46.7459 48.3637C46.7459 46.9163 45.942 45.9153 44.3401 45.1892C43.2211 44.6905 40.0903 43.9352 34.9527 42.9317V30.7663C37.3804 31.2139 40.3044 31.7187 43.738 32.2806C50.2708 33.4288 55.1737 35.1705 58.4309 37.4961C61.659 39.8545 63.2657 42.804 63.2657 46.3447C63.2657 51.0092 60.9438 54.8162 56.3012 57.7657H56.3024Z" fill="white"/>
</svg>
