<svg width="24" height="24" viewBox="0 0 24 24" fill="none" xmlns="http://www.w3.org/2000/svg">
<mask id="mask0_1473_2607" style="mask-type:luminance" maskUnits="userSpaceOnUse" x="0" y="0" width="24" height="24">
<path d="M17.744 15.5768C17.2851 15.7088 16.6163 15.9487 15.7824 16.2757C14.4657 16.8936 13.0771 16.7827 12.2282 15.9307L8.04419 11.7341C7.20738 10.8942 7.0994 9.54132 7.69327 8.27843C8.03519 7.40251 8.27514 6.73057 8.40711 6.26862C8.4701 6.05264 8.50609 5.89065 8.51808 5.78566C8.51808 5.80966 8.51808 5.85166 8.65005 5.98064L3.83914 1.15708C3.79415 1.11209 3.5692 1.15108 3.34125 1.37606C0.494888 4.2288 0.494888 8.86638 3.34125 11.7221L12.3302 20.7333C15.1586 23.571 19.7326 23.571 22.5639 20.7333C22.8039 20.4933 22.8489 20.2143 22.7829 20.1483L18.1279 15.4838C18.0319 15.5018 17.906 15.5318 17.75 15.5768H17.744ZM18.1909 15.4688C18.1909 15.4688 18.2059 15.4688 18.2149 15.4688C18.2119 15.4688 18.2089 15.4688 18.2029 15.4688H18.1909ZM8.91099 10.9482L13.0951 15.1448C13.548 15.6008 14.3698 15.6638 15.2876 15.2348C17.618 14.3169 18.3919 14.0919 18.8358 14.5359L23.6467 19.3594C24.2166 19.9294 24.0636 20.8803 23.4277 21.5162C20.1255 24.8279 14.7567 24.8279 11.4544 21.5162L2.46545 12.505C-0.821815 9.21135 -0.821815 3.88083 2.46545 0.587135C3.1163 -0.0638059 4.11207 -0.22579 4.70294 0.368156L9.51386 5.19172C9.93077 5.60868 9.70582 6.38861 8.79702 8.71039C8.37412 9.61631 8.4401 10.4802 8.908 10.9482H8.91099Z" fill="white"/>
</mask>
<g mask="url(#mask0_1473_2607)">
<mask id="mask1_1473_2607" style="mask-type:luminance" maskUnits="userSpaceOnUse" x="-32" y="-32" width="318" height="376">
<path d="M285.539 -31.1949H-31.1895V343.171H285.539V-31.1949Z" fill="white"/>
</mask>
<g mask="url(#mask1_1473_2607)">
<path d="M27.0011 -2.99768H-2.99512V27.0026H27.0011V-2.99768Z" fill="#133B89"/>
</g>
</g>
</svg>
