<svg width="215" height="55" viewBox="0 0 215 55" fill="none" xmlns="http://www.w3.org/2000/svg">
<circle cx="27.5" cy="27.5" r="26.5" stroke="white" stroke-width="2"/>
<path d="M32 27.5L25.25 31.3971L25.25 23.6029L32 27.5Z" fill="white"/>
<path d="M72.5181 33V22.504H74.1181L76.1341 28.104C76.2621 28.4667 76.3848 28.8347 76.5021 29.208C76.6301 29.5707 76.7581 29.9333 76.8861 30.296H76.9501C77.0781 29.9333 77.1955 29.5707 77.3021 29.208C77.4195 28.8347 77.5421 28.4667 77.6701 28.104L79.6541 22.504H81.2701V33H80.0221V27.224C80.0221 26.7547 80.0435 26.2373 80.0861 25.672C80.1288 25.096 80.1661 24.5787 80.1981 24.12H80.1341L79.3021 26.504L77.3181 31.944H76.4381L74.4541 26.504L73.6221 24.12H73.5581C73.5901 24.5787 73.6221 25.096 73.6541 25.672C73.6968 26.2373 73.7181 26.7547 73.7181 27.224V33H72.5181ZM85.8071 33.192C85.1565 33.192 84.6125 33 84.1751 32.616C83.7485 32.2213 83.5351 31.6773 83.5351 30.984C83.5351 30.1307 83.9138 29.48 84.6711 29.032C85.4391 28.5733 86.6498 28.2533 88.3031 28.072C88.3031 27.7413 88.2551 27.4267 88.1591 27.128C88.0738 26.8293 87.9138 26.5893 87.6791 26.408C87.4551 26.216 87.1298 26.12 86.7031 26.12C86.2551 26.12 85.8338 26.2053 85.4391 26.376C85.0445 26.5467 84.6925 26.7387 84.3831 26.952L83.8711 26.04C84.2338 25.8053 84.6765 25.5813 85.1991 25.368C85.7325 25.144 86.3085 25.032 86.9271 25.032C87.8765 25.032 88.5645 25.3253 88.9911 25.912C89.4178 26.488 89.6311 27.2613 89.6311 28.232V33H88.5431L88.4311 32.072H88.3831C88.0205 32.3707 87.6205 32.632 87.1831 32.856C86.7565 33.08 86.2978 33.192 85.8071 33.192ZM86.1911 32.136C86.5645 32.136 86.9165 32.0453 87.2471 31.864C87.5778 31.6827 87.9298 31.4267 88.3031 31.096V28.936C87.0125 29.096 86.1058 29.336 85.5831 29.656C85.0711 29.976 84.8151 30.3867 84.8151 30.888C84.8151 31.3253 84.9485 31.6453 85.2151 31.848C85.4818 32.04 85.8071 32.136 86.1911 32.136ZM92.0776 33V25.224H93.1656L93.2776 26.632H93.3256C93.5923 26.1413 93.9176 25.752 94.3016 25.464C94.6856 25.176 95.0963 25.032 95.5336 25.032C95.843 25.032 96.1203 25.0853 96.3656 25.192L96.1096 26.344C95.9816 26.3013 95.8643 26.2693 95.7576 26.248C95.651 26.2267 95.5176 26.216 95.3576 26.216C95.027 26.216 94.6803 26.3493 94.3176 26.616C93.9656 26.8827 93.6563 27.3467 93.3896 28.008V33H92.0776ZM97.6245 33V21.608H98.9205V29.32H98.9685L102.281 25.224H103.737L101.129 28.344L104.089 33H102.649L100.377 29.256L98.9205 30.952V33H97.6245ZM108.417 33.192C107.724 33.192 107.094 33.032 106.529 32.712C105.964 32.3813 105.516 31.912 105.185 31.304C104.854 30.696 104.689 29.9707 104.689 29.128C104.689 28.2747 104.854 27.544 105.185 26.936C105.526 26.328 105.964 25.8587 106.497 25.528C107.03 25.1973 107.59 25.032 108.177 25.032C109.169 25.032 109.932 25.3627 110.465 26.024C111.009 26.6853 111.281 27.5707 111.281 28.68C111.281 28.8187 111.276 28.9573 111.265 29.096C111.265 29.224 111.254 29.336 111.233 29.432H105.985C106.038 30.2533 106.294 30.9093 106.753 31.4C107.222 31.8907 107.83 32.136 108.577 32.136C108.95 32.136 109.292 32.0827 109.601 31.976C109.921 31.8587 110.225 31.7093 110.513 31.528L110.977 32.392C110.646 32.6053 110.268 32.792 109.841 32.952C109.425 33.112 108.95 33.192 108.417 33.192ZM105.969 28.488H110.129C110.129 27.6987 109.958 27.1013 109.617 26.696C109.286 26.28 108.817 26.072 108.209 26.072C107.665 26.072 107.174 26.2853 106.737 26.712C106.31 27.128 106.054 27.72 105.969 28.488ZM113.203 33V25.224H114.291L114.403 26.344H114.451C114.824 25.9707 115.219 25.6613 115.635 25.416C116.051 25.16 116.525 25.032 117.059 25.032C117.88 25.032 118.477 25.2933 118.851 25.816C119.235 26.328 119.427 27.08 119.427 28.072V33H118.115V28.248C118.115 27.5227 117.997 26.9947 117.763 26.664C117.528 26.3333 117.155 26.168 116.643 26.168C116.248 26.168 115.891 26.2693 115.571 26.472C115.261 26.6747 114.909 26.9733 114.515 27.368V33H113.203ZM122.177 33V26.296H121.121V25.304L122.177 25.224V23.992C122.177 23.2027 122.358 22.5787 122.721 22.12C123.094 21.6507 123.67 21.416 124.449 21.416C124.694 21.416 124.929 21.4427 125.153 21.496C125.377 21.5387 125.574 21.5973 125.745 21.672L125.457 22.68C125.169 22.552 124.875 22.488 124.577 22.488C123.851 22.488 123.489 22.9893 123.489 23.992V25.224H125.137V26.296H123.489V33H122.177ZM126.625 33V25.224H127.937V33H126.625ZM127.297 23.624C127.041 23.624 126.827 23.5493 126.657 23.4C126.497 23.24 126.417 23.0267 126.417 22.76C126.417 22.504 126.497 22.296 126.657 22.136C126.827 21.976 127.041 21.896 127.297 21.896C127.553 21.896 127.761 21.976 127.921 22.136C128.091 22.296 128.177 22.504 128.177 22.76C128.177 23.0267 128.091 23.24 127.921 23.4C127.761 23.5493 127.553 23.624 127.297 23.624ZM131.954 33.192C131.463 33.192 131.106 33.0427 130.882 32.744C130.669 32.4347 130.562 31.9973 130.562 31.432V21.608H131.874V31.528C131.874 31.7307 131.911 31.88 131.986 31.976C132.061 32.0613 132.146 32.104 132.242 32.104C132.285 32.104 132.322 32.104 132.354 32.104C132.397 32.0933 132.455 32.0827 132.53 32.072L132.706 33.064C132.621 33.1067 132.519 33.1387 132.402 33.16C132.285 33.1813 132.135 33.192 131.954 33.192ZM134.64 33V25.224H135.728L135.84 26.344H135.888C136.229 25.9707 136.603 25.6613 137.008 25.416C137.413 25.16 137.845 25.032 138.304 25.032C138.901 25.032 139.365 25.1653 139.696 25.432C140.037 25.688 140.288 26.0507 140.448 26.52C140.853 26.0827 141.264 25.7253 141.68 25.448C142.096 25.1707 142.539 25.032 143.008 25.032C143.808 25.032 144.4 25.2933 144.784 25.816C145.179 26.328 145.376 27.08 145.376 28.072V33H144.064V28.248C144.064 27.5227 143.947 26.9947 143.712 26.664C143.477 26.3333 143.115 26.168 142.624 26.168C142.048 26.168 141.397 26.568 140.672 27.368V33H139.36V28.248C139.36 27.5227 139.243 26.9947 139.008 26.664C138.773 26.3333 138.405 26.168 137.904 26.168C137.328 26.168 136.677 26.568 135.952 27.368V33H134.64ZM152.901 33.192C152.25 33.192 151.706 33 151.269 32.616C150.842 32.2213 150.629 31.6773 150.629 30.984C150.629 30.1307 151.008 29.48 151.765 29.032C152.533 28.5733 153.744 28.2533 155.397 28.072C155.397 27.7413 155.349 27.4267 155.253 27.128C155.168 26.8293 155.008 26.5893 154.773 26.408C154.549 26.216 154.224 26.12 153.797 26.12C153.349 26.12 152.928 26.2053 152.533 26.376C152.138 26.5467 151.786 26.7387 151.477 26.952L150.965 26.04C151.328 25.8053 151.77 25.5813 152.293 25.368C152.826 25.144 153.402 25.032 154.021 25.032C154.97 25.032 155.658 25.3253 156.085 25.912C156.512 26.488 156.725 27.2613 156.725 28.232V33H155.637L155.525 32.072H155.477C155.114 32.3707 154.714 32.632 154.277 32.856C153.85 33.08 153.392 33.192 152.901 33.192ZM153.285 32.136C153.658 32.136 154.01 32.0453 154.341 31.864C154.672 31.6827 155.024 31.4267 155.397 31.096V28.936C154.106 29.096 153.2 29.336 152.677 29.656C152.165 29.976 151.909 30.3867 151.909 30.888C151.909 31.3253 152.042 31.6453 152.309 31.848C152.576 32.04 152.901 32.136 153.285 32.136ZM162.611 33.192C162.249 33.192 161.87 33.1067 161.475 32.936C161.091 32.7547 160.729 32.5093 160.387 32.2H160.339L160.227 33H159.171V21.608H160.483V24.712L160.451 26.12C160.803 25.8107 161.187 25.5547 161.603 25.352C162.03 25.1387 162.457 25.032 162.883 25.032C163.897 25.032 164.665 25.3893 165.187 26.104C165.71 26.8187 165.971 27.7787 165.971 28.984C165.971 29.8693 165.811 30.6267 165.491 31.256C165.182 31.8853 164.771 32.3653 164.259 32.696C163.758 33.0267 163.209 33.192 162.611 33.192ZM162.387 32.088C163.027 32.088 163.555 31.816 163.971 31.272C164.398 30.7173 164.611 29.96 164.611 29C164.611 28.1467 164.451 27.4587 164.131 26.936C163.822 26.4027 163.299 26.136 162.563 26.136C162.233 26.136 161.897 26.2267 161.555 26.408C161.214 26.5893 160.857 26.8507 160.483 27.192V31.272C160.825 31.5707 161.161 31.784 161.491 31.912C161.833 32.0293 162.131 32.088 162.387 32.088ZM170.047 33.192C169.492 33.192 168.964 33.0907 168.463 32.888C167.962 32.6747 167.524 32.4187 167.151 32.12L167.807 31.24C168.148 31.5067 168.5 31.7307 168.863 31.912C169.226 32.0827 169.636 32.168 170.095 32.168C170.607 32.168 170.991 32.0507 171.247 31.816C171.503 31.5707 171.631 31.2827 171.631 30.952C171.631 30.6853 171.54 30.4613 171.359 30.28C171.188 30.0987 170.964 29.9493 170.687 29.832C170.42 29.704 170.143 29.5867 169.855 29.48C169.492 29.3413 169.135 29.1867 168.783 29.016C168.431 28.8347 168.143 28.6053 167.919 28.328C167.695 28.04 167.583 27.6773 167.583 27.24C167.583 26.6107 167.818 26.088 168.287 25.672C168.767 25.2453 169.428 25.032 170.271 25.032C170.751 25.032 171.199 25.1173 171.615 25.288C172.031 25.4587 172.388 25.6667 172.687 25.912L172.047 26.744C171.78 26.5413 171.503 26.376 171.215 26.248C170.927 26.12 170.612 26.056 170.271 26.056C169.78 26.056 169.418 26.168 169.183 26.392C168.959 26.616 168.847 26.8773 168.847 27.176C168.847 27.4213 168.927 27.624 169.087 27.784C169.247 27.9333 169.455 28.0667 169.711 28.184C169.967 28.2907 170.239 28.4027 170.527 28.52C170.9 28.6587 171.268 28.8187 171.631 29C171.994 29.1707 172.292 29.4053 172.527 29.704C172.772 29.992 172.895 30.3813 172.895 30.872C172.895 31.288 172.783 31.672 172.559 32.024C172.346 32.376 172.026 32.6587 171.599 32.872C171.183 33.0853 170.666 33.192 170.047 33.192ZM174.718 36.28V25.224H175.806L175.918 26.12H175.966C176.318 25.8213 176.702 25.5653 177.118 25.352C177.545 25.1387 177.988 25.032 178.446 25.032C179.449 25.032 180.212 25.3947 180.734 26.12C181.257 26.8347 181.518 27.7947 181.518 29C181.518 29.8747 181.358 30.6267 181.038 31.256C180.729 31.8853 180.318 32.3653 179.806 32.696C179.305 33.0267 178.756 33.192 178.158 33.192C177.796 33.192 177.433 33.112 177.07 32.952C176.718 32.792 176.361 32.5733 175.998 32.296L176.03 33.656V36.28H174.718ZM177.934 32.088C178.574 32.088 179.102 31.816 179.518 31.272C179.945 30.7173 180.158 29.96 180.158 29C180.158 28.1467 179.998 27.4587 179.678 26.936C179.369 26.4027 178.846 26.136 178.11 26.136C177.78 26.136 177.444 26.2267 177.102 26.408C176.772 26.5893 176.414 26.8507 176.03 27.192V31.272C176.382 31.5707 176.724 31.784 177.054 31.912C177.385 32.0293 177.678 32.088 177.934 32.088ZM183.593 33V25.224H184.905V33H183.593ZM184.265 23.624C184.009 23.624 183.796 23.5493 183.625 23.4C183.465 23.24 183.385 23.0267 183.385 22.76C183.385 22.504 183.465 22.296 183.625 22.136C183.796 21.976 184.009 21.896 184.265 21.896C184.521 21.896 184.729 21.976 184.889 22.136C185.06 22.296 185.145 22.504 185.145 22.76C185.145 23.0267 185.06 23.24 184.889 23.4C184.729 23.5493 184.521 23.624 184.265 23.624ZM190.683 33.192C189.989 33.192 189.36 33.032 188.795 32.712C188.229 32.3813 187.781 31.912 187.451 31.304C187.12 30.696 186.955 29.9707 186.955 29.128C186.955 28.2747 187.12 27.544 187.451 26.936C187.792 26.328 188.229 25.8587 188.763 25.528C189.296 25.1973 189.856 25.032 190.443 25.032C191.435 25.032 192.197 25.3627 192.731 26.024C193.275 26.6853 193.547 27.5707 193.547 28.68C193.547 28.8187 193.541 28.9573 193.531 29.096C193.531 29.224 193.52 29.336 193.499 29.432H188.251C188.304 30.2533 188.56 30.9093 189.019 31.4C189.488 31.8907 190.096 32.136 190.843 32.136C191.216 32.136 191.557 32.0827 191.867 31.976C192.187 31.8587 192.491 31.7093 192.779 31.528L193.243 32.392C192.912 32.6053 192.533 32.792 192.107 32.952C191.691 33.112 191.216 33.192 190.683 33.192ZM188.235 28.488H192.395C192.395 27.6987 192.224 27.1013 191.883 26.696C191.552 26.28 191.083 26.072 190.475 26.072C189.931 26.072 189.44 26.2853 189.003 26.712C188.576 27.128 188.32 27.72 188.235 28.488ZM196.86 33.192C196.37 33.192 196.012 33.0427 195.788 32.744C195.575 32.4347 195.468 31.9973 195.468 31.432V21.608H196.78V31.528C196.78 31.7307 196.818 31.88 196.892 31.976C196.967 32.0613 197.052 32.104 197.148 32.104C197.191 32.104 197.228 32.104 197.26 32.104C197.303 32.0933 197.362 32.0827 197.436 32.072L197.612 33.064C197.527 33.1067 197.426 33.1387 197.308 33.16C197.191 33.1813 197.042 33.192 196.86 33.192ZM202.698 33.192C202.005 33.192 201.376 33.032 200.81 32.712C200.245 32.3813 199.797 31.912 199.466 31.304C199.136 30.696 198.97 29.9707 198.97 29.128C198.97 28.2747 199.136 27.544 199.466 26.936C199.808 26.328 200.245 25.8587 200.778 25.528C201.312 25.1973 201.872 25.032 202.458 25.032C203.45 25.032 204.213 25.3627 204.746 26.024C205.29 26.6853 205.562 27.5707 205.562 28.68C205.562 28.8187 205.557 28.9573 205.546 29.096C205.546 29.224 205.536 29.336 205.514 29.432H200.266C200.32 30.2533 200.576 30.9093 201.034 31.4C201.504 31.8907 202.112 32.136 202.858 32.136C203.232 32.136 203.573 32.0827 203.882 31.976C204.202 31.8587 204.506 31.7093 204.794 31.528L205.258 32.392C204.928 32.6053 204.549 32.792 204.122 32.952C203.706 33.112 203.232 33.192 202.698 33.192ZM200.25 28.488H204.41C204.41 27.6987 204.24 27.1013 203.898 26.696C203.568 26.28 203.098 26.072 202.49 26.072C201.946 26.072 201.456 26.2853 201.018 26.712C200.592 27.128 200.336 27.72 200.25 28.488ZM207.484 33V25.224H208.572L208.684 26.344H208.732C209.105 25.9707 209.5 25.6613 209.916 25.416C210.332 25.16 210.807 25.032 211.34 25.032C212.161 25.032 212.759 25.2933 213.132 25.816C213.516 26.328 213.708 27.08 213.708 28.072V33H212.396V28.248C212.396 27.5227 212.279 26.9947 212.044 26.664C211.809 26.3333 211.436 26.168 210.924 26.168C210.529 26.168 210.172 26.2693 209.852 26.472C209.543 26.6747 209.191 26.9733 208.796 27.368V33H207.484Z" fill="white"/>
</svg>
