<svg width="137" height="42" viewBox="0 0 137 42" fill="none" xmlns="http://www.w3.org/2000/svg">
<path d="M36.0334 14.2442C35.8497 14.322 35.6028 14.5713 35.2902 14.9873C34.5069 16.0321 33.6981 17.01 32.8637 17.9235C32.0281 18.8369 31.2715 19.5813 30.5928 20.1542C30.279 20.4157 29.8485 20.7684 29.3011 21.2111C28.7526 21.6551 28.2052 22.0857 27.6567 22.5028C27.1081 22.9213 26.4161 23.4418 25.5817 24.0682C25.5294 24.0682 25.7252 23.6255 26.1692 22.7376C26.6119 21.8509 27.1483 20.8073 27.7747 19.6056C30.0711 15.0652 31.2192 12.6119 31.2192 12.247C31.2192 12.0901 31.1146 11.9223 30.9066 11.7386C30.6974 11.5561 30.515 11.4649 30.3593 11.4649C30.2535 11.4649 30.1112 11.6218 29.9288 11.9344C29.7451 12.247 29.289 12.9792 28.5592 14.1262C27.5667 15.6916 26.5888 17.1791 25.623 18.5888C24.6561 19.9985 23.7305 21.2501 22.8438 22.3472C21.9559 23.443 21.1471 24.3565 20.4173 25.0875C19.6875 25.8185 19.0866 26.3147 18.6172 26.575C18.2 26.7842 17.9518 26.8231 17.874 26.693C17.7962 26.5629 17.784 26.2113 17.8351 25.636C17.9397 24.4891 18.397 22.9626 19.2046 21.0567C20.0147 19.1519 21.1483 16.9735 22.6103 14.5203C23.0275 13.8428 23.3802 13.2675 23.6672 12.798C23.9531 12.3285 24.0978 12.0682 24.0978 12.0147C24.0978 11.8578 23.992 11.7021 23.784 11.5452C23.5748 11.3883 23.3656 11.3372 23.1576 11.3883C23.053 11.3883 22.9095 11.4795 22.727 11.6619C22.5446 11.8444 22.2442 12.2762 21.827 12.9537C21.1531 13.9644 20.5353 14.9654 19.9733 15.9567C19.8894 16.0114 19.8031 16.0674 19.7143 16.1234C18.931 16.6196 18.3046 16.9723 17.8351 17.1803C17.6782 17.2326 17.4556 17.3117 17.1698 17.4151C16.8827 17.5209 16.5945 17.6109 16.3086 17.6887C16.0216 17.7666 15.7467 17.8456 15.4864 17.9235C15.2249 18.0013 15.068 18.0415 15.0169 18.0415C14.9111 18.0415 15.0169 17.7556 15.3295 17.1803C16.0593 15.0931 16.2685 13.5278 15.9559 12.483C15.8501 12.2227 15.6822 11.9612 15.4475 11.6997C15.2127 11.4394 14.9646 11.2569 14.7031 11.1511C14.0767 10.8385 13.3725 10.8908 12.5892 11.308C11.9105 11.6218 11.2318 12.0792 10.5543 12.6776C9.87561 13.2784 9.09231 14.1006 8.20563 15.143L7.73613 15.6125C7.84073 15.2999 8.16671 14.6869 8.71526 13.7722C9.26381 12.86 9.88898 11.8286 10.5944 10.6804C11.2987 9.53344 12.0163 8.37064 12.7473 7.19692C13.4771 6.02319 14.1035 5.04408 14.6265 4.26078C15.2006 3.4264 15.6834 2.70877 16.0751 2.10792C16.4667 1.50828 16.6626 1.18231 16.6626 1.13001C16.6626 1.02662 16.5312 0.88311 16.2709 0.699449C16.0094 0.517004 15.827 0.425781 15.7224 0.425781C15.5132 0.425781 15.1081 0.791889 14.5085 1.52167C13.9076 2.25267 13.2034 3.23177 12.3946 4.4578C11.5845 5.68505 10.6723 7.10692 9.65424 8.7246C8.6362 10.3435 7.63154 12.0658 6.64025 13.8914C6.06494 14.9362 5.43976 16.1221 4.76107 17.454C4.08359 18.7846 3.45719 20.0642 2.88188 21.2902C2.30779 22.5174 1.79938 23.6133 1.35543 24.5779C0.912694 25.5448 0.66457 26.1834 0.612269 26.496C0.561185 26.7052 0.664564 26.8876 0.924852 27.0445C1.50016 27.2537 1.8906 27.1759 2.09858 26.8098C2.2044 26.7064 2.32117 26.5239 2.45131 26.2624C2.58268 26.0021 2.72498 25.7139 2.88188 25.4013C3.19447 24.5669 3.35137 24.2543 3.35137 24.4623C3.40367 24.8807 3.46814 25.1933 3.5472 25.4013C3.62505 25.6105 3.74302 25.8197 3.89992 26.0277C4.00574 26.1323 4.14805 26.2369 4.33049 26.3403C4.51415 26.4461 4.65768 26.5495 4.76107 26.6528C5.02257 26.7587 5.41422 26.8231 5.93479 26.8487C6.45537 26.8754 6.92608 26.8365 7.34449 26.7307C8.33577 26.4181 9.44503 25.6093 10.6711 24.3042C11.8971 23.0003 13.0319 21.4349 14.0767 19.6068L14.7031 18.5888L15.9559 18.2762C16.2685 18.1728 16.6601 18.0415 17.1296 17.8846C17.5991 17.7277 17.964 17.5707 18.2255 17.4151C18.6391 17.2326 19.0915 16.9772 19.5853 16.6524C19.0015 17.7276 18.4822 18.7907 18.0285 19.8416C17.0639 22.0856 16.5799 23.887 16.5799 25.2432C16.5799 25.6616 16.6066 25.9608 16.6577 26.1432C16.71 26.3269 16.7891 26.4959 16.8924 26.6516C17.5711 27.6952 18.5892 27.6174 19.9454 26.4169C20.2579 26.1043 20.6751 25.6737 21.1981 25.1252C21.7187 24.5766 22.2551 23.9648 22.8037 23.2861C23.351 22.6087 23.8862 21.93 24.408 21.2501C24.9285 20.5726 25.3725 19.9462 25.7386 19.3709C25.9989 18.9537 26.2336 18.5876 26.4428 18.275C26.6508 17.9624 26.7822 17.78 26.8345 17.7264C26.8856 17.623 26.7287 17.9612 26.365 18.7445C25.9989 19.5278 25.5294 20.5191 24.9553 21.7196L22.9204 26.0252L21.276 27.199C20.8065 27.5639 20.1923 28.0212 19.4369 28.5685C18.6816 29.1159 18.0151 29.5987 17.441 30.0172C16.0325 31.0607 14.871 31.9474 13.9575 32.6784C13.0453 33.4082 12.2231 34.166 11.4909 34.9493C10.6042 35.8359 9.92548 36.6448 9.45598 37.3758C8.98649 38.1055 8.75175 38.7319 8.75175 39.2549C8.75175 39.6721 8.93541 40.0893 9.3003 40.5077C9.66641 40.9249 10.1359 41.212 10.71 41.3689C11.3887 41.5769 12.2498 41.4589 13.2934 41.0161C14.3382 40.5722 15.3818 39.8546 16.4254 38.8633C17.4179 37.9243 18.6439 36.292 20.1047 33.9701C21.5655 31.647 23.0275 29.0246 24.4882 26.1019L24.9577 25.0838L27.2286 23.4394C28.3244 22.605 29.2756 21.8485 30.0856 21.1686C30.8945 20.4911 31.6243 19.8258 32.2774 19.1726C32.9294 18.5207 33.5424 17.842 34.1177 17.1377C34.6918 16.4335 35.2914 15.6381 35.9178 14.7502C36.1781 14.333 36.217 14.1627 36.0346 14.2417L36.0334 14.2442ZM11.6867 20.0763C11.1904 20.8596 10.6553 21.6685 10.0824 22.5028C9.56059 23.2338 8.97312 23.9259 8.32118 24.5779C7.66803 25.231 7.13285 25.6616 6.71566 25.8696C5.46287 26.4449 4.62849 26.3135 4.21008 25.4779C4.05318 25.2176 3.98872 24.8004 4.01426 24.2251C4.04102 23.651 4.18454 23.156 4.44482 22.7376C4.70633 22.1112 5.20137 21.5115 5.93236 20.9375C6.66215 20.3634 7.52328 19.9194 8.51579 19.6068C8.67269 19.5557 8.93298 19.4901 9.29908 19.411C9.66397 19.3332 10.0435 19.2541 10.4339 19.1763C10.8255 19.0984 11.2038 19.0327 11.5687 18.9804C11.9336 18.9294 12.1683 18.9026 12.2729 18.9026C12.3775 18.9026 12.1817 19.2943 11.6855 20.0763H11.6867ZM14.3881 14.322C14.0755 15.3924 13.6838 16.397 13.2144 17.336C12.9528 17.9113 12.7181 18.2494 12.5101 18.354C12.3009 18.4599 11.6222 18.5888 10.474 18.7457C10.0556 18.798 9.65181 18.8515 9.26016 18.9026C8.86851 18.9549 8.56808 19.034 8.3601 19.1374C7.94169 19.2432 7.44666 19.411 6.87256 19.6458C6.29725 19.8805 5.85452 20.1286 5.54193 20.3889L5.30719 20.6237C5.2561 20.676 5.20259 20.7015 5.15029 20.7015C5.04568 20.7015 5.1892 20.3755 5.58085 19.7224C5.9725 19.0704 6.37631 18.4574 6.79472 17.8833C8.25549 15.8473 9.45599 14.3743 10.3962 13.4596C11.3352 12.5474 12.2486 11.9599 13.1365 11.6984C13.3445 11.6474 13.4892 11.6084 13.5671 11.5805C13.6449 11.5549 13.7361 11.5415 13.8407 11.5415C13.9453 11.5415 14.101 11.5938 14.3102 11.6984C14.5705 11.803 14.7019 11.9332 14.7019 12.0901C14.8065 12.5085 14.7019 13.2517 14.3893 14.3208L14.3881 14.322ZM22.0593 27.6697C21.8501 28.0869 21.5898 28.5819 21.276 29.1572C19.606 32.4449 18.1185 34.976 16.8134 36.7506C15.5095 38.5239 14.23 39.7257 12.9772 40.3521C12.6646 40.509 12.4031 40.6257 12.1939 40.7048C11.9859 40.7826 11.7244 40.8227 11.4106 40.8227C10.9411 40.8738 10.5884 40.8483 10.3536 40.7449C10.1189 40.6391 9.8975 40.4043 9.6883 40.0407C9.32341 39.5189 9.37571 38.8134 9.8452 37.9268C10.2113 37.2481 10.9155 36.3735 11.9591 35.3044C13.0039 34.2341 14.2823 33.0993 15.7953 31.8988C16.1614 31.5862 16.6954 31.1678 17.4009 30.646C18.1051 30.1242 18.7972 29.6145 19.4759 29.1195C20.1533 28.6233 20.7676 28.1805 21.3161 27.7889C21.8647 27.3972 22.1894 27.1759 22.2952 27.1236C22.3463 27.0725 22.2685 27.2549 22.0605 27.6709L22.0593 27.6697Z" fill="white"/>
<path d="M127.431 14.2043C127.378 14.1532 127.274 14.2043 127.117 14.3612C126.804 14.8307 126.346 15.4705 125.747 16.2793C125.146 17.0893 124.52 17.9237 123.868 18.7849C123.215 19.646 122.563 20.4816 121.911 21.2904C121.258 22.1005 120.697 22.7391 120.228 23.2086C119.444 24.0964 118.595 24.8664 117.683 25.5183C116.77 26.1715 116.051 26.4962 115.53 26.4962C115.01 26.4962 114.618 26.2615 114.357 25.792C114.149 25.3748 114.044 24.7873 114.044 24.0308C114.044 23.2742 114.175 22.5043 114.436 21.721C114.854 20.2079 115.165 19.4782 115.375 19.5292C115.426 19.5815 115.557 19.5949 115.766 19.5681C115.974 19.5426 116.209 19.5292 116.471 19.5292C117.41 19.4259 118.336 19.0342 119.25 18.3555C120.162 17.678 120.933 16.8169 121.56 15.7721C121.977 15.1457 122.225 14.6896 122.303 14.4025C122.381 14.1167 122.446 13.7117 122.499 13.1887C122.55 12.1974 122.264 11.6233 121.637 11.4664C121.325 11.363 121.141 11.3095 121.09 11.3095C120.933 11.3095 120.594 11.3873 120.072 11.5442C118.976 11.9626 117.88 12.7459 116.784 13.8929C116.672 14.0109 116.562 14.1325 116.452 14.2541C116.277 14.4013 116.023 14.6713 115.688 15.0678C115.479 15.3816 115.219 15.7465 114.905 16.1637C114.593 16.5821 114.304 16.947 114.044 17.2596C113.783 17.5722 113.469 17.9639 113.105 18.4334C112.739 18.9028 112.426 19.3212 112.166 19.6861C111.748 20.2614 111.278 20.8477 110.756 21.4473C110.235 22.0482 109.738 22.6211 109.269 23.1696C108.799 23.7182 108.369 24.201 107.977 24.6182C107.585 25.0366 107.285 25.3225 107.077 25.4794C106.346 26.0547 105.694 26.4585 105.12 26.6932C104.545 26.928 104.232 26.9158 104.181 26.6543C104.075 26.2371 104.363 25.2981 105.042 23.8362C105.72 22.3754 106.738 20.4694 108.095 18.1208C108.929 16.7646 109.569 15.5641 110.013 14.5193C110.456 13.4757 110.679 12.7459 110.679 12.3275C110.679 11.9091 110.522 11.5321 110.209 11.1927C109.895 10.8534 109.53 10.6843 109.113 10.6843C108.434 10.6843 107.521 11.1416 106.373 12.0538C105.225 12.9673 104.129 14.1021 103.085 15.4595C102.73 15.9338 102.494 16.2282 102.377 16.3425C102.378 16.3352 102.381 16.3291 102.381 16.3206C102.381 16.216 102.406 16.1126 102.459 16.0068C102.719 15.4327 102.928 14.8988 103.085 14.4025C103.242 13.9075 103.371 13.5025 103.477 13.1887C103.581 12.5623 103.528 12.0149 103.32 11.5442C103.111 11.0747 102.771 10.7889 102.302 10.6831C101.727 10.5785 100.775 11.0747 99.4448 12.1706C98.1141 13.2665 96.7701 14.6762 95.4127 16.3985C94.6817 17.3375 94.329 17.7291 94.3558 17.5722C94.3813 17.4153 94.9165 16.5286 95.9601 14.911C96.2727 14.4415 96.5597 13.972 96.8212 13.5025C97.0815 13.033 97.264 12.7192 97.3686 12.5635C97.5255 12.2497 97.6155 12.0551 97.6422 11.976C97.6678 11.8982 97.6288 11.8069 97.5254 11.7023C97.3162 11.5454 97.107 11.4165 96.8991 11.3107C96.6899 11.2073 96.4551 11.2851 96.1948 11.5454C95.9333 11.8592 95.4906 12.5124 94.8642 13.5025C94.4944 14.0875 94.1064 14.7188 93.7014 15.3938C93.5384 15.6273 93.3523 15.8828 93.1419 16.1637C92.8293 16.5821 92.541 16.947 92.2808 17.2596C92.0193 17.5722 91.7055 17.9639 91.3418 18.4334C90.9757 18.9028 90.6631 19.3212 90.4028 19.6861C89.9844 20.2614 89.5149 20.8477 88.9931 21.4473C88.4713 22.0482 87.9751 22.6211 87.5056 23.1696C87.0361 23.7182 86.6055 24.201 86.2139 24.6182C85.8222 25.0366 85.5218 25.3225 85.3138 25.4794C84.5828 26.0547 83.9309 26.4585 83.3568 26.6932C82.7815 26.928 82.4689 26.9158 82.4178 26.6543C82.312 26.2371 82.6002 25.2981 83.2789 23.8362C83.9564 22.3754 84.9745 20.4694 86.3318 18.1208C87.1662 16.7646 87.806 15.5641 88.25 14.5193C88.6927 13.4757 88.9153 12.7459 88.9153 12.3275C88.9153 11.9091 88.7584 11.5321 88.4458 11.1927C88.132 10.8534 87.7671 10.6843 87.3499 10.6843C86.6712 10.6843 85.7577 11.1416 84.6096 12.0538C83.4614 12.9673 82.3655 14.1021 81.3219 15.4595C80.9667 15.9338 80.7308 16.2282 80.614 16.3425C80.6152 16.3352 80.6177 16.3291 80.6177 16.3206C80.6177 16.216 80.6432 16.1126 80.6955 16.0068C80.9558 15.4327 81.165 14.8988 81.3219 14.4025C81.4788 13.9075 81.6077 13.5025 81.7135 13.1887C81.8181 12.5623 81.7646 12.0149 81.5566 11.5442C81.3474 11.0747 81.0081 10.7889 80.5386 10.6831C79.9633 10.5785 79.0121 11.0747 77.6815 12.1706C76.3509 13.2665 75.0069 14.6762 73.6495 16.3985C72.9185 17.3375 72.5658 17.7291 72.5925 17.5722C72.618 17.4153 73.1532 16.5286 74.1968 14.911C74.5094 14.4415 74.7964 13.972 75.058 13.5025C75.3182 13.033 75.5007 12.7192 75.6053 12.5635C75.7622 12.2497 75.8522 12.0551 75.879 11.976C75.9045 11.8982 75.8656 11.8069 75.7622 11.7023C75.553 11.5454 75.3438 11.4165 75.1358 11.3107C74.9266 11.2073 74.6918 11.2851 74.4316 11.5454C74.17 11.8592 73.7273 12.5124 73.1009 13.5025C72.4745 14.495 71.7958 15.6164 71.0648 16.8692C70.8848 17.1769 70.7072 17.4859 70.5309 17.7936C69.3657 19.5511 68.3549 20.9791 67.5035 22.075C66.224 23.7194 65.0636 24.9588 64.02 25.7932C63.6016 26.0547 63.1978 26.2894 62.8062 26.4974C62.4145 26.7066 62.1664 26.7845 62.0618 26.7322C61.9572 26.6288 61.9049 26.3794 61.9049 25.989C61.9049 25.5986 62.0083 25.1157 62.2175 24.5404C62.2686 24.2278 62.3355 23.9529 62.4133 23.7182C62.4911 23.4834 62.5957 23.2231 62.7259 22.9349C62.856 22.6491 63.0251 22.2963 63.2343 21.8779C63.4423 21.4607 63.7293 20.8866 64.0954 20.1556C64.8252 18.7459 65.2692 17.8459 65.4261 17.4542C65.583 17.0626 65.6085 16.7889 65.5039 16.632C65.3981 16.4751 65.2424 16.3462 65.0344 16.2404C64.8252 16.1358 64.6428 16.0835 64.4859 16.0835C64.2767 16.0835 64.0808 16.1881 63.8984 16.3961C63.7147 16.6053 63.362 17.1003 62.8414 17.8836C62.2661 18.7715 61.5887 19.7762 60.8066 20.8976C60.0233 22.0202 59.3701 22.8935 58.8495 23.5199C58.3277 24.1463 57.7147 24.7995 57.0093 25.4769C56.305 26.1556 55.8489 26.5217 55.6397 26.5728C55.3271 26.6786 55.1447 26.6507 55.0912 26.495C55.0401 26.3381 55.0133 25.9744 55.0133 25.3991C55.0656 24.4601 55.3405 23.391 55.8356 22.1893C56.3318 20.9888 56.9582 19.7895 57.7147 18.5878C58.4701 17.3873 59.3312 16.2659 60.2982 15.2211C61.2627 14.1775 62.2418 13.3164 63.2343 12.6377C64.121 12.0636 64.8787 11.7644 65.5051 11.7376C66.1315 11.7121 66.5487 11.9857 66.7579 12.5598C66.809 12.8213 66.8358 13.213 66.8358 13.7336C66.8358 14.2541 66.7835 14.7261 66.6789 15.142C66.6266 15.4558 66.6132 15.6505 66.6399 15.7295C66.6655 15.8074 66.7299 15.8463 66.8358 15.8463C67.0438 15.7952 67.1885 15.3513 67.2663 14.5157C67.3442 13.6813 67.3308 13.0026 67.2274 12.4808C67.0705 11.9067 66.6132 11.4627 65.8579 11.1501C65.1001 10.8375 64.3046 10.7852 63.4703 10.9932C62.6347 11.2024 61.7869 11.6075 60.9258 12.2071C60.0646 12.8079 59.2156 13.5256 58.3813 14.36C57.5457 15.1956 56.7903 16.1212 56.1104 17.1392C55.6032 17.9018 55.1678 18.6705 54.8066 19.4477C54.7397 19.5353 54.6788 19.6144 54.6241 19.6837C54.5195 19.7883 54.3504 19.9708 54.1157 20.231C53.881 20.4926 53.6328 20.7796 53.3725 21.0922C53.111 21.4048 52.7972 21.7709 52.4335 22.1881C52.0674 22.6065 51.7549 22.9458 51.4946 23.2061L50.5556 24.2241L50.7903 23.5978C51.1029 22.8145 51.2987 21.9412 51.3778 20.9754C51.4557 20.0109 51.4423 18.6924 51.3389 17.0224L51.261 15.0654L51.6527 14.8307C51.913 14.6738 52.1867 14.4269 52.4749 14.0875C52.7607 13.7482 53.0101 13.3711 53.2193 12.9527C53.4273 12.5878 53.5319 12.3397 53.5319 12.2095C53.5319 12.0794 53.454 11.9103 53.2971 11.7011C53.0356 11.3873 52.7218 11.2584 52.3581 11.3095C51.9397 11.3095 51.5359 11.4797 51.1443 11.8179C50.7526 12.1584 50.4267 12.6146 50.1652 13.1874C50.1129 13.3443 50.0739 13.5013 50.0484 13.6569C50.0216 13.8138 49.9961 14.0364 49.9705 14.3223C49.9438 14.6093 49.9195 15.0009 49.8927 15.496C49.8672 15.9922 49.8538 16.6576 49.8538 17.4919C49.8538 18.3263 49.8416 18.9928 49.8149 19.4879C49.7893 19.9841 49.7638 20.3879 49.737 20.7017C49.7115 21.0143 49.6725 21.277 49.6202 21.485C49.5692 21.6942 49.5157 21.9545 49.4634 22.2684C49.2554 22.9993 49.0595 23.56 48.8759 23.9517C48.6934 24.3433 48.4721 24.7484 48.2106 25.1656C47.6365 25.8966 46.9578 26.3673 46.1757 26.574C45.8619 26.6263 45.5238 26.6008 45.1576 26.4962C44.8438 26.3928 44.6225 26.2614 44.4923 26.1045C44.3622 25.9476 44.271 25.6618 44.2187 25.2434C44.0107 24.5136 44.2187 23.7826 44.8451 23.0516L45.4714 22.4252C45.4714 22.3206 45.2112 22.3742 44.6882 22.5821C44.271 22.8436 43.9718 23.2475 43.7881 23.796C43.6056 24.3433 43.5923 24.9053 43.7492 25.4794C43.9584 26.315 44.5325 26.8623 45.4714 27.1238C45.5773 27.1761 45.7196 27.2016 45.902 27.2016H46.4895C47.4285 27.1506 48.421 26.7066 49.4646 25.871C50.0387 25.4538 50.8743 24.6316 51.9701 23.4056C52.7693 22.5116 53.5392 21.6103 54.2836 20.7017C53.9783 21.4619 53.78 22.0518 53.6924 22.4654C53.589 22.9616 53.5355 23.6002 53.5355 24.3835C53.5355 24.9588 53.5489 25.3492 53.5744 25.5572C53.6012 25.7664 53.6657 26.0012 53.7703 26.2614C54.1364 26.8368 54.5803 27.1493 55.1009 27.2004C55.5704 27.3573 56.0934 27.2272 56.6663 26.8088C56.8232 26.7054 57.0713 26.4694 57.4107 26.1045C57.75 25.7396 58.1149 25.3213 58.5065 24.8518C58.8982 24.3823 59.2898 23.8872 59.6803 23.3642C60.0719 22.8437 60.3967 22.3729 60.6594 21.9545C60.7628 21.7466 60.8674 21.5763 60.972 21.4461C61.0754 21.316 61.1289 21.277 61.1289 21.3281C61.0766 21.4339 61.051 21.5373 61.051 21.6419C60.9987 21.7465 60.9732 21.8512 60.9732 21.9545C60.9732 22.0579 60.9464 22.1637 60.8954 22.2671C60.6862 22.8424 60.5426 23.4554 60.4648 24.1074C60.3869 24.7605 60.3736 25.269 60.4259 25.6338C60.5828 26.8356 61.2092 27.3817 62.305 27.2783C62.7222 27.2272 63.1528 27.0958 63.5968 26.8866C64.0395 26.6787 64.5479 26.287 65.1232 25.7117C66.0306 24.8518 67.0158 23.7169 68.0776 22.3097C67.8088 22.8461 67.5801 23.3277 67.3928 23.7547C66.7153 25.1644 66.3626 26.0389 66.3359 26.377C66.3103 26.7176 66.5061 26.8854 66.9233 26.8854H67.3928L68.3318 25.0853C68.6979 24.4078 68.9971 23.8325 69.2319 23.363C69.4666 22.8935 69.7148 22.4629 69.975 22.0713C70.2365 21.6796 70.5236 21.2625 70.8362 20.8185C71.1488 20.3758 71.5404 19.8406 72.0099 19.2142C72.5305 18.4844 72.9756 17.8836 73.3405 17.4141C73.7054 16.9446 74.0314 16.5408 74.3197 16.2002C74.6055 15.8609 74.8938 15.5349 75.1808 15.2223C75.4666 14.9085 75.8194 14.5448 76.2378 14.1264C78.0111 12.2472 79.3953 11.3083 80.3866 11.3083C80.5435 11.3083 80.6335 11.335 80.6602 11.3861C80.6858 11.4384 80.6724 11.6208 80.6213 11.9346C80.569 12.353 80.2686 13.1485 79.7213 14.3223C79.1727 15.496 78.4551 16.8157 77.5684 18.2752C77.4115 18.5367 77.1634 18.9539 76.824 19.528C76.4835 20.1033 76.1198 20.7163 75.7281 21.3683C75.3365 22.0214 74.9704 22.6345 74.6322 23.2073C74.2917 23.7826 74.0703 24.1743 73.9669 24.3823C73.7054 24.8007 73.5753 25.1133 73.5753 25.3212C73.5753 25.4782 73.6653 25.6083 73.849 25.7129C74.0314 25.8187 74.2272 25.8698 74.4364 25.8698C74.6967 25.8698 74.9059 25.753 75.0628 25.5171C75.2197 25.2823 75.6624 24.5659 76.3934 23.3642C76.8106 22.6345 77.3446 21.7989 77.999 20.8587C78.6509 19.9197 79.3162 18.9928 79.9949 18.0794C80.6724 17.1672 81.3122 16.3182 81.913 15.5349C82.5127 14.7516 83.0211 14.1532 83.4395 13.7348C85.0559 12.1183 86.3355 11.3083 87.2757 11.3083C87.7452 11.3083 87.8498 11.5953 87.5895 12.1694C87.4837 12.4309 87.1711 13.0184 86.6505 13.9306C86.1287 14.844 85.5546 15.8232 84.9282 16.8667C84.6144 17.3362 84.2751 17.8982 83.9102 18.5501C83.5441 19.2033 83.206 19.8552 82.8921 20.5071C82.5783 21.1603 82.2913 21.7733 82.031 22.3474C81.7695 22.9227 81.5871 23.3654 81.4825 23.678C81.1164 24.7228 80.9607 25.5061 81.013 26.0267C81.0641 26.5485 81.3523 26.9401 81.8741 27.2004C82.031 27.3573 82.3436 27.4352 82.8131 27.4352C83.2303 27.3829 83.6086 27.2661 83.9479 27.0824C84.2872 26.9 84.7433 26.574 85.3174 26.1045C85.7869 25.7396 86.243 25.3091 86.687 24.8128C87.1297 24.3178 87.8741 23.4433 88.9177 22.1905C89.4918 21.4607 89.9868 20.8477 90.4052 20.3515C90.8224 19.8564 91.1885 19.4125 91.5011 19.0208C91.6301 18.859 91.7505 18.7034 91.8672 18.5513C91.4768 19.2434 91.0937 19.9343 90.719 20.6263C90.0416 21.8791 89.5185 22.9239 89.1537 23.7583C88.4762 25.168 88.1235 26.0425 88.0967 26.3806C88.0712 26.7212 88.267 26.8891 88.6842 26.8891H89.1537L90.0926 25.0889C90.4587 24.4115 90.758 23.8361 90.9927 23.3666C91.2274 22.8972 91.4756 22.4666 91.7359 22.075C91.9974 21.6833 92.2844 21.2661 92.597 20.8222C92.9096 20.3794 93.3012 19.8443 93.7707 19.2179C94.2913 18.4881 94.7365 17.8872 95.1014 17.4177C95.4663 16.9482 95.7922 16.5444 96.0805 16.2039C96.3663 15.8645 96.6546 15.5385 96.9416 15.226C97.2275 14.9121 97.5802 14.5485 97.9986 14.1301C99.772 12.2509 101.156 11.3119 102.147 11.3119C102.304 11.3119 102.394 11.3387 102.421 11.3897C102.447 11.442 102.433 11.6245 102.382 11.9383C102.33 12.3567 102.029 13.1522 101.482 14.3259C100.934 15.4996 100.216 16.8193 99.3292 18.2789C99.1723 18.5404 98.9242 18.9576 98.5849 19.5317C98.2443 20.107 97.8806 20.72 97.489 21.3719C97.0973 22.0251 96.7312 22.6381 96.3931 23.211C96.0525 23.7863 95.8312 24.1779 95.7278 24.3859C95.4663 24.8043 95.3361 25.1169 95.3361 25.3249C95.3361 25.4818 95.4261 25.6119 95.6098 25.7165C95.7922 25.8224 95.9881 25.8735 96.1973 25.8735C96.4575 25.8735 96.6667 25.7567 96.8237 25.5207C96.9806 25.286 97.4233 24.5696 98.1543 23.3679C98.5715 22.6381 99.1054 21.8025 99.7598 20.8623C100.412 19.9233 101.077 18.9965 101.756 18.083C102.433 17.1708 103.073 16.3219 103.674 15.5386C104.273 14.7553 104.782 14.1568 105.2 13.7384C106.817 12.122 108.096 11.3119 109.037 11.3119C109.506 11.3119 109.611 11.599 109.35 12.1731C109.245 12.4346 108.932 13.022 108.411 13.9343C107.89 14.8477 107.315 15.8268 106.689 16.8704C106.375 17.3399 106.036 17.9018 105.671 18.5538C105.305 19.2069 104.967 19.8588 104.653 20.5108C104.339 21.1639 104.052 21.777 103.792 22.3511C103.53 22.9264 103.348 23.3691 103.243 23.6817C102.877 24.7265 102.721 25.5098 102.774 26.0304C102.825 26.5522 103.113 26.9438 103.635 27.2041C103.792 27.361 104.104 27.4388 104.574 27.4388C104.991 27.3865 105.369 27.2698 105.709 27.0861C106.048 26.9037 106.504 26.5777 107.078 26.1082C107.548 25.7433 108.004 25.3127 108.448 24.8165C108.891 24.3215 109.635 23.4469 110.679 22.1941C111.253 21.4644 111.748 20.8513 112.166 20.3551C112.583 19.8601 112.949 19.4161 113.262 19.0245C113.391 18.8639 113.51 18.7095 113.626 18.5574C113.269 19.3237 112.991 20.0802 112.792 20.8246C112.48 21.9995 112.35 23.0833 112.401 24.0733C112.453 25.0658 112.741 25.7956 113.262 26.2651C113.784 26.7346 114.254 27.0216 114.67 27.1262C115.089 27.2309 115.596 27.1919 116.197 27.0083C116.797 26.8258 117.357 26.5266 117.88 26.1082C118.767 25.4307 119.955 24.2035 121.443 22.4289C122.93 20.6555 124.587 18.4893 126.414 15.9314C127.144 14.7844 127.483 14.2091 127.432 14.2091L127.431 14.2043ZM51.2586 14.1264C51.3632 13.7092 51.5323 13.2653 51.767 12.7958C52.0018 12.3263 52.2487 12.0405 52.5102 11.9346C52.7705 11.8313 52.9018 11.8836 52.9018 12.0915C52.9529 12.3008 52.9018 12.5744 52.7449 12.9138C52.588 13.2543 52.3788 13.5536 52.1185 13.8138C52.0139 13.9197 51.9093 14.023 51.8059 14.1264C51.7026 14.2298 51.5967 14.3101 51.4934 14.3612L51.2586 14.5959V14.1264ZM117.097 16.0835C117.514 15.406 118.141 14.6482 118.976 13.8126C119.811 12.9782 120.464 12.4309 120.933 12.1682C121.09 12.1171 121.219 12.0648 121.325 12.0113C121.428 11.9602 121.507 11.9334 121.56 11.9334C121.768 11.9334 121.924 12.1682 122.029 12.6377C122.08 13.0561 121.977 13.5767 121.715 14.2031C121.454 14.8295 121.089 15.4437 120.619 16.0433C120.15 16.6442 119.613 17.2049 119.015 17.7267C118.414 18.2485 117.827 18.6146 117.254 18.8226C116.835 18.9795 116.432 19.0841 116.04 19.1352C115.648 19.1875 115.452 19.1619 115.452 19.0573C115.452 18.9527 115.622 18.5756 115.961 17.9225C116.3 17.2705 116.677 16.6575 117.096 16.0835H117.097Z" fill="white"/>
<path d="M135.964 14.2042C135.858 14.2042 135.716 14.3356 135.533 14.5959C135.349 14.8574 134.971 15.5349 134.398 16.6307C133.041 18.9794 131.645 21.0812 130.211 22.9324C128.774 24.786 127.561 25.9987 126.57 26.5728C126.204 26.8343 125.918 26.9644 125.709 26.9644C125.604 26.9644 125.54 26.9389 125.513 26.8866C125.488 26.8355 125.474 26.6263 125.474 26.2602C125.58 25.6338 125.788 24.9174 126.101 24.1073C126.413 23.2985 126.856 22.4507 127.431 21.5628C127.796 20.9364 128.227 20.1531 128.723 19.2142C129.218 18.2752 129.545 17.6232 129.701 17.2571C129.909 16.7876 129.975 16.4349 129.897 16.2002C129.819 15.9654 129.517 15.5616 128.997 14.9863C128.37 14.4657 128.058 14.0996 128.058 13.8904C128.058 13.787 128.136 13.6168 128.292 13.382C128.449 13.1473 128.632 12.8736 128.84 12.5598C129.048 12.246 129.231 11.9601 129.388 11.6986C129.545 11.4383 129.623 11.2815 129.623 11.2292C129.623 11.0723 129.492 10.9166 129.231 10.7597C128.97 10.6551 128.801 10.6417 128.723 10.7207C128.645 10.7986 128.5 10.9689 128.292 11.2292C127.979 11.5953 127.705 11.9723 127.47 12.3639C127.235 12.7556 127.118 13.056 127.118 13.264C127.118 13.7335 127.431 14.203 128.056 14.6737C128.161 14.7795 128.278 14.9084 128.409 15.0653C128.539 15.2222 128.656 15.3524 128.762 15.457C128.865 15.6662 128.905 15.8097 128.88 15.8876C128.853 15.9654 128.762 16.1612 128.606 16.475C128.5 16.632 128.319 16.9324 128.058 17.3751C127.796 17.819 127.51 18.2752 127.197 18.7447C126.518 19.7895 125.957 20.7808 125.513 21.7198C125.07 22.6587 124.743 23.5199 124.534 24.3032C124.326 25.0865 124.248 25.7518 124.299 26.2991C124.352 26.8477 124.561 27.2259 124.926 27.4339C125.344 27.7477 125.891 27.7197 126.57 27.3561C126.83 27.1992 127.222 26.861 127.744 26.338C128.266 25.815 128.813 25.2166 129.388 24.5379C129.962 23.8604 130.51 23.1951 131.033 22.542C131.553 21.89 131.945 21.3281 132.207 20.8586C132.363 20.5983 132.506 20.3891 132.637 20.2322C132.767 20.0753 132.858 19.9464 132.911 19.8405C132.962 19.7895 133.145 19.4757 133.458 18.9016C133.772 18.3275 134.123 17.7011 134.515 17.0224C134.907 16.3449 135.258 15.7307 135.572 15.1821C135.885 14.6336 136.042 14.3344 136.042 14.2821C136.042 14.2298 136.015 14.2042 135.964 14.2042Z" fill="white"/>
</svg>
